P3
64 64
255
103 -58 105 115 81 -1 74 -20 41 -51 -70 -85 -14 -5 -29 70 124 -62 84 -8 27 -24 -25 -115 118 90 46 99 51 -97 -55 -102 102 50 13 -73 49 88 -93 90 37 93 5 23 88 -23 94 -44 -85 -78 -51 -58 -101 -76 84 17 14 -126 116 65 33 61 -36 -121 112 -23 62 -95 65 -31 -4 103 62 1 126 -105 -22 -36 107 -106 -113 56 92 42 -20 -80 59 -5 50 -81 60 84 -20 24 -37 92 2 26 -2 67 -5 -6 -86 58 -5 41 -47 -26 5 60 124 -108 117 -40 -66 97 -119 -7 92 -69 -88 -103 15 -107 -79 -21 -15 -77 5 -17 -9 0 -23 -95 58 -27 -54 11 -53 -48 72 71 100 -67 31 35 30 -88 28 123 100 -59 20 115 90 -59 94 75 121 99 59 112 100 36 17 -98 9 -36 -86 -44 -84 -14 27 16 -81 59 51 -51 -29 80 72 71 21 92 -69 111 34 25 -70 -101 125 -11 
1 1 1 1 1 1 1 1 1 1 1 1 1 1 1 1 1 1 1 1 1 1 1 1 1 1 1 1 1 1 1 1 1 1 1 1 1 1 1 1 1 1 1 1 1 1 1 1 1 1 1 1 1 1 1 1 1 1 1 1 1 1 1 1 1 1 1 1 1 1 1 1 1 1 1 1 1 1 1 1 1 1 1 1 1 1 1 1 1 1 1 1 1 1 1 1 1 1 1 1 1 1 1 1 1 1 1 1 1 1 1 1 1 1 1 1 1 1 1 1 1 1 1 1 1 1 1 1 1 1 1 1 1 1 1 1 1 1 1 1 1 1 1 1 1 1 1 1 1 1 1 1 1 1 1 1 1 1 1 1 1 1 1 1 1 1 1 1 1 1 1 1 1 1 1 1 1 1 1 1 1 1 1 1 1 1 1 1 1 1 1 1 
11 -31 26 28 127 35 -8 41 -8 -92 27 19 -75 -54 78 -24 -104 50 56 -32 121 77 61 52 -68 95 78 119 -6 -53 108 5 -84 -122 33 43 -86 26 85 -94 -66 112 -75 115 59 4 92 -45 54 -108 -77 -81 -30 -16 -28 -98 79 50 21 73 -3 -126 78 -87 8 112 -44 -78 -118 41 84 72 -102 10 -68 -43 14 24 -88 68 -84 91 -13 -114 76 -41 45 -101 9 66 -27 6 -60 51 -81 -51 -93 -124 127 45 -83 -44 118 71 -34 50 28 -20 74 -60 48 -10 32 35 -123 108 -5 -78 7 4 -12 -20 11 -71 32 -70 -122 -61 62 5 -15 -20 -39 103 51 -73 -103 80 -93 -29 20 -45 -39 52 -9 94 -96 -14 16 -88 -10 5 -108 1 -66 -76 -68 68 120 -6 73 105 -26 35 -48 26 -38 105 106 126 76 126 81 37 -77 72 -124 83 58 -108 -5 49 -103 -112 50 87 68 -18 -101 -68 -23 -27 
3 3 3 3 3 3 3 3 3 3 3 3 3 3 3 3 3 3 3 3 3 3 3 3 3 3 3 3 3 3 3 3 3 3 3 3 3 3 3 3 3 3 3 3 3 3 3 3 3 3 3 3 3 3 3 3 3 3 3 3 3 3 3 3 3 3 3 3 3 3 3 3 3 3 3 3 3 3 3 3 3 3 3 3 3 3 3 3 3 3 3 3 3 3 3 3 3 3 3 3 3 3 3 3 3 3 3 3 3 3 3 3 3 3 3 3 3 3 3 3 3 3 3 3 3 3 3 3 3 3 3 3 3 3 3 3 3 3 3 3 3 3 3 3 3 3 3 3 3 3 3 3 3 3 3 3 3 3 3 3 3 3 3 3 3 3 3 3 3 3 3 3 3 3 3 3 3 3 3 3 3 3 3 3 3 3 3 3 3 3 3 3 
37 -49 8 -11 -23 -30 94 83 96 -86 -46 -78 -48 -123 -6 84 -40 53 -24 -44 102 -126 100 -104 -39 -88 -121 117 101 112 90 -118 63 98 -128 41 68 -34 124 -91 -119 78 87 89 -45 81 -83 -84 -122 -107 -128 -20 23 -28 -123 -15 -116 12 102 -15 124 -64 124 -69 34 -4 -28 102 -38 97 11 99 -81 98 -68 -125 -76 105 47 58 -1 -81 39 22 -109 -84 7 31 -72 109 17 52 45 -115 -17 79 -119 -44 -74 99 53 -63 -57 -28 36 -125 103 -40 -19 -106 18 -20 69 57 2 -40 -27 10 -8 -99 119 9 -47 -91 -106 -63 -12 31 -107 -86 -126 -54 108 73 -82 -112 -51 22 104 -70 -84 122 -90 -14 -76 -88 -54 -103 -78 -62 55 42 -53 8 -49 97 -55 -61 -128 94 110 3 40 -38 76 -41 106 25 -19 -46 -45 -103 76 121 -117 0 34 86 -102 -44 24 -47 -2 -28 -39 -51 69 -93 -111 -58 1 -1 
5 5 5 5 5 5 5 5 5 5 5 5 5 5 5 5 5 5 5 5 5 5 5 5 5 5 5 5 5 5 5 5 5 5 5 5 5 5 5 5 5 5 5 5 5 5 5 5 5 5 5 5 5 5 5 5 5 5 5 5 5 5 5 5 5 5 5 5 5 5 5 5 5 5 5 5 5 5 5 5 5 5 5 5 5 5 5 5 5 5 5 5 5 5 5 5 5 5 5 5 5 5 5 5 5 5 5 5 5 5 5 5 5 5 5 5 5 5 5 5 5 5 5 5 5 5 5 5 5 5 5 5 5 5 5 5 5 5 5 5 5 5 5 5 5 5 5 5 5 5 5 5 5 5 5 5 5 5 5 5 5 5 5 5 5 5 5 5 5 5 5 5 5 5 5 5 5 5 5 5 5 5 5 5 5 5 5 5 5 5 5 5 
-55 42 -39 21 1 67 47 -18 21 2 -121 97 124 19 98 -98 105 -4 114 -127 -51 113 101 -90 62 -85 73 -49 113 75 -50 58 117 -89 79 118 -22 126 100 -1 -127 -21 97 -3 -2 -61 -101 103 -65 13 -23 -116 126 78 50 -67 -7 124 -116 106 -57 91 -92 60 2 -12 -78 -19 114 22 -20 -13 1 77 -16 0 16 -117 103 -49 -103 80 91 23 -97 -114 -44 -104 10 97 3 -47 -68 -89 13 -66 -101 -65 -85 14 -43 -104 1 -42 -27 -14 -42 -10 125 62 -59 22 -114 33 46 45 -81 2 -58 -71 99 -55 -118 31 112 -105 -34 12 86 -119 26 43 33 27 1 7 13 -40 -3 -117 22 -62 -95 -92 -29 -49 -46 -110 -46 -104 75 53 97 -43 85 -47 108 51 -35 -62 -68 -9 -19 -34 19 -17 -27 32 -57 -30 -85 -35 -92 77 -127 -120 28 83 26 -18 -21 102 36 76 59 121 30 -88 -84 -5 106 104 
7 7 7 7 7 7 7 7 7 7 7 7 7 7 7 7 7 7 7 7 7 7 7 7 7 7 7 7 7 7 7 7 7 7 7 7 7 7 7 7 7 7 7 7 7 7 7 7 7 7 7 7 7 7 7 7 7 7 7 7 7 7 7 7 7 7 7 7 7 7 7 7 7 7 7 7 7 7 7 7 7 7 7 7 7 7 7 7 7 7 7 7 7 7 7 7 7 7 7 7 7 7 7 7 7 7 7 7 7 7 7 7 7 7 7 7 7 7 7 7 7 7 7 7 7 7 7 7 7 7 7 7 7 7 7 7 7 7 7 7 7 7 7 7 7 7 7 7 7 7 7 7 7 7 7 7 7 7 7 7 7 7 7 7 7 7 7 7 7 7 7 7 7 7 7 7 7 7 7 7 7 7 7 7 7 7 7 7 7 7 7 7 
-13 88 70 6 71 43 38 14 13 -46 -21 -78 31 108 58 59 -64 84 42 -85 -70 78 -8 -10 -57 22 -98 115 17 8 -37 4 96 34 10 -89 77 49 -75 91 3 -96 13 34 13 71 93 -51 -101 -121 120 86 -43 112 76 -100 -122 -22 15 -104 -14 -21 -100 83 13 -89 -6 90 -40 -80 -75 -37 80 -62 -3 93 9 90 42 -91 -30 -93 -5 -73 19 71 84 -102 49 99 50 35 78 -50 118 91 117 113 -74 77 33 107 40 113 46 37 -49 55 -128 -7 -36 98 -100 -41 25 -80 30 109 74 79 -47 124 115 31 74 -23 123 -64 90 49 13 123 -100 54 -19 -54 91 -68 2 -37 -75 -34 61 82 -74 87 2 -44 -60 76 36 -107 -56 -105 -75 18 -128 48 -46 -37 97 -32 86 -3 22 67 -56 113 -1 -54 77 -75 -88 -118 7 94 -31 9 51 -90 85 87 59 29 -18 -16 47 110 32 2 73 -127 
9 9 9 9 9 9 9 9 9 9 9 9 9 9 9 9 9 9 9 9 9 9 9 9 9 9 9 9 9 9 9 9 9 9 9 9 9 9 9 9 9 9 9 9 9 9 9 9 9 9 9 9 9 9 9 9 9 9 9 9 9 9 9 9 9 9 9 9 9 9 9 9 9 9 9 9 9 9 9 9 9 9 9 9 9 9 9 9 9 9 9 9 9 9 9 9 9 9 9 9 9 9 9 9 9 9 9 9 9 9 9 9 9 9 9 9 9 9 9 9 9 9 9 9 9 9 9 9 9 9 9 9 9 9 9 9 9 9 9 9 9 9 9 9 9 9 9 9 9 9 9 9 9 9 9 9 9 9 9 9 9 9 9 9 9 9 9 9 9 9 9 9 9 9 9 9 9 9 9 9 9 9 9 9 9 9 9 9 9 9 9 9 
-30 -96 127 -8 -29 71 105 -29 17 -74 -104 -71 65 -97 24 34 -88 75 -56 -3 -94 4 26 -112 -12 73 -2 21 75 72 -106 45 -24 21 37 -53 92 -113 -82 109 69 70 39 -122 -27 63 -87 -115 -118 113 -118 44 117 -92 -68 106 -18 -70 127 57 2 21 103 -22 43 -116 -74 -121 27 100 -11 97 -85 28 -25 -112 91 -112 30 -27 2 -88 17 119 77 -51 -31 59 -121 96 116 -118 118 -37 116 -95 104 42 40 -125 -113 29 -28 58 57 -52 -54 -108 92 -24 121 94 -111 -118 -42 -34 87 -73 25 -33 24 -115 105 -114 105 -35 47 -47 8 87 84 -105 117 57 -47 -82 5 -101 67 97 -124 -68 -64 21 71 -106 -13 -98 77 12 125 101 -103 -26 -13 2 -60 34 -45 -52 122 40 99 -17 97 52 -99 102 -49 -32 -57 83 -99 -121 104 -28 29 91 -126 107 103 0 -48 1 -26 -60 3 -86 -26 -41 118 96 
11 11 11 11 11 11 11 11 11 11 11 11 11 11 11 11 11 11 11 11 11 11 11 11 11 11 11 11 11 11 11 11 11 11 11 11 11 11 11 11 11 11 11 11 11 11 11 11 11 11 11 11 11 11 11 11 11 11 11 11 11 11 11 11 11 11 11 11 11 11 11 11 11 11 11 11 11 11 11 11 11 11 11 11 11 11 11 11 11 11 11 11 11 11 11 11 11 11 11 11 11 11 11 11 11 11 11 11 11 11 11 11 11 11 11 11 11 11 11 11 11 11 11 11 11 11 11 11 11 11 11 11 11 11 11 11 11 11 11 11 11 11 11 11 11 11 11 11 11 11 11 11 11 11 11 11 11 11 11 11 11 11 11 11 11 11 11 11 11 11 11 11 11 11 11 11 11 11 11 11 11 11 11 11 11 11 11 11 11 11 11 11 
-1 -39 79 96 13 -19 -58 -35 -51 -115 48 106 21 -103 78 50 -12 -47 -99 92 -47 110 93 -73 50 96 98 24 55 -40 121 54 -78 -56 -106 -65 -75 92 -100 -125 -22 -51 -19 -1 102 60 49 90 13 -49 -74 -34 61 19 -107 111 116 -9 -121 -85 -48 0 -30 -126 -55 120 65 126 -43 -34 1 -65 -85 -17 -66 17 43 -17 107 56 -66 34 22 -5 53 -85 106 -87 -93 -14 85 115 -14 55 -11 -69 -81 54 58 -124 20 59 67 -65 42 1 -48 85 -15 60 -115 -81 94 -93 -85 -109 79 21 61 -14 7 -110 101 -6 -55 90 -75 120 -112 -17 -3 -91 43 64 100 85 66 53 -85 51 113 56 -30 -49 -36 -115 98 43 -93 -97 29 -86 49 -126 -92 -6 -36 90 115 108 73 112 17 116 -80 118 -54 -14 -85 117 37 28 -83 8 -21 -119 -107 77 -76 56 -19 -47 -29 30 83 -121 25 47 -31 -116 -100 43 
13 13 13 13 13 13 13 13 13 13 13 13 13 13 13 13 13 13 13 13 13 13 13 13 13 13 13 13 13 13 13 13 13 13 13 13 13 13 13 13 13 13 13 13 13 13 13 13 13 13 13 13 13 13 13 13 13 13 13 13 13 13 13 13 13 13 13 13 13 13 13 13 13 13 13 13 13 13 13 13 13 13 13 13 13 13 13 13 13 13 13 13 13 13 13 13 13 13 13 13 13 13 13 13 13 13 13 13 13 13 13 13 13 13 13 13 13 13 13 13 13 13 13 13 13 13 13 13 13 13 13 13 13 13 13 13 13 13 13 13 13 13 13 13 13 13 13 13 13 13 13 13 13 13 13 13 13 13 13 13 13 13 13 13 13 13 13 13 13 13 13 13 13 13 13 13 13 13 13 13 13 13 13 13 13 13 13 13 13 13 13 13 
-4 -83 -97 -84 35 105 -97 -50 -34 -60 -22 -116 -52 -43 21 98 35 -54 -102 16 -101 125 46 -17 5 71 30 -26 -45 -70 17 -49 104 -79 124 -117 26 27 90 -7 -33 68 -123 -84 26 -102 14 61 100 -88 77 0 38 123 -17 43 -61 13 17 -106 -56 35 102 48 -44 -30 -69 -18 -3 21 -25 -36 90 108 -120 116 7 -106 -79 107 63 -2 107 101 121 90 -112 60 104 -95 -45 48 -60 57 96 -104 27 27 -121 24 49 110 -12 -117 -37 125 -1 -30 19 -80 77 82 -82 -71 -73 39 19 71 100 123 -23 55 -85 -83 112 11 70 -117 39 -51 -93 88 59 -105 -29 22 20 -30 -8 40 -110 70 122 64 -1 50 103 18 121 -53 -114 98 2 57 16 114 69 86 -3 108 35 -96 -60 94 56 -89 117 76 -119 109 116 27 -77 -17 91 -78 33 -62 -59 -102 -114 83 -3 -112 -116 13 3 -47 99 0 61 -122 
15 15 15 15 15 15 15 15 15 15 15 15 15 15 15 15 15 15 15 15 15 15 15 15 15 15 15 15 15 15 15 15 15 15 15 15 15 15 15 15 15 15 15 15 15 15 15 15 15 15 15 15 15 15 15 15 15 15 15 15 15 15 15 15 15 15 15 15 15 15 15 15 15 15 15 15 15 15 15 15 15 15 15 15 15 15 15 15 15 15 15 15 15 15 15 15 15 15 15 15 15 15 15 15 15 15 15 15 15 15 15 15 15 15 15 15 15 15 15 15 15 15 15 15 15 15 15 15 15 15 15 15 15 15 15 15 15 15 15 15 15 15 15 15 15 15 15 15 15 15 15 15 15 15 15 15 15 15 15 15 15 15 15 15 15 15 15 15 15 15 15 15 15 15 15 15 15 15 15 15 15 15 15 15 15 15 15 15 15 15 15 15 
-95 1 -28 -39 -88 89 37 49 -57 -102 76 122 -119 -89 45 -86 106 -14 68 -8 69 65 -120 -47 78 -117 -93 -79 -116 -32 55 45 -30 28 6 -118 117 43 -68 60 -59 8 -73 78 -80 -28 -8 26 -42 61 18 27 126 -102 -20 -51 38 -113 126 -78 112 -74 -33 82 -46 -27 -36 71 16 -104 -124 -42 -95 59 36 81 31 29 107 -11 90 125 16 -40 23 -4 -91 61 -116 36 -17 -4 -38 -50 78 -84 -77 42 -13 -60 -61 119 -102 100 -78 -66 -75 -47 -37 32 -58 53 -99 -42 14 -76 -45 -77 -14 95 -41 -31 91 -79 -80 -87 93 99 -45 81 39 -106 -56 -63 -6 123 -128 -81 76 91 -49 19 -111 108 -23 -97 33 -68 82 19 27 42 -12 118 -37 -92 31 57 8 -13 -118 47 -119 82 -15 -124 -51 113 51 26 -52 3 45 93 111 22 -4 -112 -45 79 -93 -18 121 -104 101 84 60 -124 -115 68 119 23 
17 17 17 17 17 17 17 17 17 17 17 17 17 17 17 17 17 17 17 17 17 17 17 17 17 17 17 17 17 17 17 17 17 17 17 17 17 17 17 17 17 17 17 17 17 17 17 17 17 17 17 17 17 17 17 17 17 17 17 17 17 17 17 17 17 17 17 17 17 17 17 17 17 17 17 17 17 17 17 17 17 17 17 17 17 17 17 17 17 17 17 17 17 17 17 17 17 17 17 17 17 17 17 17 17 17 17 17 17 17 17 17 17 17 17 17 17 17 17 17 17 17 17 17 17 17 17 17 17 17 17 17 17 17 17 17 17 17 17 17 17 17 17 17 17 17 17 17 17 17 17 17 17 17 17 17 17 17 17 17 17 17 17 17 17 17 17 17 17 17 17 17 17 17 17 17 17 17 17 17 17 17 17 17 17 17 17 17 17 17 17 17 
116 1 106 101 -123 55 -42 -72 81 -94 -69 126 0 43 -107 -4 -69 104 75 95 86 -60 -9 -69 25 51 64 -90 120 -73 -66 -20 -72 40 81 61 95 39 -10 -79 -55 -79 47 -55 -36 -60 -58 -104 44 17 -9 -125 -42 -18 62 -17 33 126 -107 -103 54 83 -123 -18 123 -42 44 -37 -3 34 -116 -57 -45 -69 -112 -80 -128 86 72 -84 104 63 47 62 45 110 45 78 -20 -62 -24 34 22 109 17 -111 68 61 108 65 95 -8 8 50 -76 -103 -30 52 -17 42 -32 87 105 16 -107 -106 126 -62 -27 106 -123 -51 -115 -101 58 -98 44 126 -37 -103 -64 58 -111 -56 108 69 97 79 121 81 121 90 -88 -29 106 62 121 -24 0 94 82 -123 43 -33 32 102 125 77 -28 88 -26 -92 -110 119 109 -1 -67 -50 78 54 31 -57 -112 -56 -86 -6 6 36 -30 6 -126 53 -116 -82 20 -84 20 -110 -7 -8 -22 -33 
19 19 19 19 19 19 19 19 19 19 19 19 19 19 19 19 19 19 19 19 19 19 19 19 19 19 19 19 19 19 19 19 19 19 19 19 19 19 19 19 19 19 19 19 19 19 19 19 19 19 19 19 19 19 19 19 19 19 19 19 19 19 19 19 19 19 19 19 19 19 19 19 19 19 19 19 19 19 19 19 19 19 19 19 19 19 19 19 19 19 19 19 19 19 19 19 19 19 19 19 19 19 19 19 19 19 19 19 19 19 19 19 19 19 19 19 19 19 19 19 19 19 19 19 19 19 19 19 19 19 19 19 19 19 19 19 19 19 19 19 19 19 19 19 19 19 19 19 19 19 19 19 19 19 19 19 19 19 19 19 19 19 19 19 19 19 19 19 19 19 19 19 19 19 19 19 19 19 19 19 19 19 19 19 19 19 19 19 19 19 19 19 
-99 125 87 10 124 20 -40 -54 74 -8 -111 -37 -64 60 -43 -58 96 -72 -52 -30 -19 88 -112 1 5 -92 -109 -2 -99 126 -34 58 -5 53 68 119 73 28 65 -109 20 -46 110 -44 14 68 -102 110 -4 103 81 -23 -65 -31 -22 -60 -122 126 -61 35 -4 -95 93 -9 -42 -95 110 31 -67 -81 -78 -46 -127 33 -90 -112 101 65 -2 97 -88 79 74 103 49 52 44 -73 -78 -17 -38 -82 -112 55 -91 102 -40 19 -123 -107 -62 55 103 68 88 14 -44 -67 79 -46 30 -9 34 104 94 83 -99 -118 10 79 121 -28 -2 9 27 -93 111 -13 -73 -12 -120 121 44 -16 -67 -124 -2 -111 66 77 100 96 68 -122 -55 -94 -39 102 45 -29 -75 -90 -57 -77 -80 -30 87 31 -43 14 20 93 -121 64 77 69 -60 75 -42 6 -104 58 103 -36 -64 48 127 -103 -106 -84 124 75 82 67 -1 2 37 86 34 -6 100 54 
21 21 21 21 21 21 21 21 21 21 21 21 21 21 21 21 21 21 21 21 21 21 21 21 21 21 21 21 21 21 21 21 21 21 21 21 21 21 21 21 21 21 21 21 21 21 21 21 21 21 21 21 21 21 21 21 21 21 21 21 21 21 21 21 21 21 21 21 21 21 21 21 21 21 21 21 21 21 21 21 21 21 21 21 21 21 21 21 21 21 21 21 21 21 21 21 21 21 21 21 21 21 21 21 21 21 21 21 21 21 21 21 21 21 21 21 21 21 21 21 21 21 21 21 21 21 21 21 21 21 21 21 21 21 21 21 21 21 21 21 21 21 21 21 21 21 21 21 21 21 21 21 21 21 21 21 21 21 21 21 21 21 21 21 21 21 21 21 21 21 21 21 21 21 21 21 21 21 21 21 21 21 21 21 21 21 21 21 21 21 21 21 
88 -21 118 -91 48 58 -15 7 65 -119 65 -88 102 2 -40 -27 -101 110 -111 24 -71 -29 91 -72 -26 -127 14 8 123 114 62 -45 94 -76 121 -114 -18 106 -107 47 -13 -41 -41 89 -39 -81 62 116 29 -49 -116 -41 -77 -24 -113 -103 105 -98 -95 -28 16 -33 -72 110 -109 49 -3 -127 -101 -110 -79 -114 105 -120 -24 66 56 38 -73 85 -10 67 44 -87 43 -68 66 -108 90 -29 121 106 -62 49 -39 85 98 -42 -42 -3 104 -121 -117 -46 16 115 20 72 -102 -53 -99 -112 15 -54 57 58 -122 123 -49 -32 94 72 74 32 121 35 117 -37 -7 75 -40 98 -45 99 52 -29 -41 72 43 113 20 -56 1 35 -110 58 93 24 -75 44 -8 19 116 67 51 -19 102 -88 -56 96 -13 -96 -62 -58 4 -10 -87 -37 62 -44 76 82 -99 77 117 47 -121 -45 72 60 -1 64 79 116 -125 -126 97 -22 42 42 74 29 
23 23 23 23 23 23 23 23 23 23 23 23 23 23 23 23 23 23 23 23 23 23 23 23 23 23 23 23 23 23 23 23 23 23 23 23 23 23 23 23 23 23 23 23 23 23 23 23 23 23 23 23 23 23 23 23 23 23 23 23 23 23 23 23 23 23 23 23 23 23 23 23 23 23 23 23 23 23 23 23 23 23 23 23 23 23 23 23 23 23 23 23 23 23 23 23 23 23 23 23 23 23 23 23 23 23 23 23 23 23 23 23 23 23 23 23 23 23 23 23 23 23 23 23 23 23 23 23 23 23 23 23 23 23 23 23 23 23 23 23 23 23 23 23 23 23 23 23 23 23 23 23 23 23 23 23 23 23 23 23 23 23 23 23 23 23 23 23 23 23 23 23 23 23 23 23 23 23 23 23 23 23 23 23 23 23 23 23 23 23 23 23 
-54 12 -28 -50 2 -115 -87 64 98 -11 -109 -1 66 8 46 -55 -37 118 5 -37 -73 84 79 58 -42 -80 36 0 -38 110 30 -91 122 2 115 124 -113 29 -67 -15 18 80 -16 85 88 31 30 52 -107 36 15 76 120 94 -121 79 14 -85 79 -23 26 109 -114 -108 111 1 17 -1 30 -50 -16 49 30 -31 -122 118 0 -92 -86 -107 -56 -71 -30 65 23 105 -112 38 20 -33 15 46 77 -99 -61 -68 -98 -44 -69 -67 -94 -84 -18 -64 -115 116 54 -115 24 -31 34 -31 -102 4 34 -78 109 -78 -40 -126 -111 -25 -80 -34 -124 115 -101 34 71 86 -33 -23 2 -51 -87 -113 65 -32 28 90 -63 63 59 91 67 93 13 -79 15 -27 51 -96 -52 -29 127 80 87 26 115 -98 112 82 -120 115 32 49 2 97 17 31 -69 -46 94 -10 46 -95 83 59 82 98 33 -123 3 -19 105 -126 62 -64 -100 -79 94 12 
25 25 25 25 25 25 25 25 25 25 25 25 25 25 25 25 25 25 25 25 25 25 25 25 25 25 25 25 25 25 25 25 25 25 25 25 25 25 25 25 25 25 25 25 25 25 25 25 25 25 25 25 25 25 25 25 25 25 25 25 25 25 25 25 25 25 25 25 25 25 25 25 25 25 25 25 25 25 25 25 25 25 25 25 25 25 25 25 25 25 25 25 25 25 25 25 25 25 25 25 25 25 25 25 25 25 25 25 25 25 25 25 25 25 25 25 25 25 25 25 25 25 25 25 25 25 25 25 25 25 25 25 25 25 25 25 25 25 25 25 25 25 25 25 25 25 25 25 25 25 25 25 25 25 25 25 25 25 25 25 25 25 25 25 25 25 25 25 25 25 25 25 25 25 25 25 25 25 25 25 25 25 25 25 25 25 25 25 25 25 25 25 
3 -26 127 35 24 -126 -123 41 -95 64 -4 -1 55 42 -96 -118 101 -13 -19 -122 120 -16 116 -31 114 -78 -95 14 99 0 26 102 -26 -102 -118 -2 28 15 40 -67 79 36 -68 -122 78 92 17 -77 79 -2 58 -56 -18 -82 -87 96 96 75 110 -61 75 -120 41 49 34 -77 48 62 -62 88 -5 18 124 -73 -104 -54 20 -87 125 99 -89 -73 43 -107 101 -43 -11 -59 32 99 -120 107 -20 -78 -100 14 101 -52 77 40 36 72 58 -96 0 -46 106 20 124 -24 119 35 -97 -93 -71 5 120 -82 -54 -104 18 83 3 -2 5 -97 12 106 108 89 -110 -112 -94 -52 49 -94 -97 -101 -74 27 -125 45 62 35 -48 -9 40 72 -90 -14 -32 -72 69 -29 -74 74 -125 -62 -75 -17 28 71 127 -66 20 -80 96 -77 76 22 -50 -49 67 12 -14 20 4 26 92 -86 13 61 98 82 32 24 -99 -93 -38 82 -110 -10 
27 27 27 27 27 27 27 27 27 27 27 27 27 27 27 27 27 27 27 27 27 27 27 27 27 27 27 27 27 27 27 27 27 27 27 27 27 27 27 27 27 27 27 27 27 27 27 27 27 27 27 27 27 27 27 27 27 27 27 27 27 27 27 27 27 27 27 27 27 27 27 27 27 27 27 27 27 27 27 27 27 27 27 27 27 27 27 27 27 27 27 27 27 27 27 27 27 27 27 27 27 27 27 27 27 27 27 27 27 27 27 27 27 27 27 27 27 27 27 27 27 27 27 27 27 27 27 27 27 27 27 27 27 27 27 27 27 27 27 27 27 27 27 27 27 27 27 27 27 27 27 27 27 27 27 27 27 27 27 27 27 27 27 27 27 27 27 27 27 27 27 27 27 27 27 27 27 27 27 27 27 27 27 27 27 27 27 27 27 27 27 27 
-103 18 -76 -83 -62 20 96 14 42 46 -34 110 59 -48 -126 63 -21 -34 -23 -8 27 75 74 60 99 -25 -33 61 57 114 52 -45 -124 -24 -128 70 -3 -31 85 39 15 51 -107 74 3 23 -119 -18 -10 114 -26 17 -67 49 77 32 24 45 94 82 -97 -110 37 35 122 -91 105 119 -122 -66 -97 -106 -15 52 -32 -11 76 106 -29 66 -36 -54 83 -102 -5 -95 -70 19 -50 24 101 109 -86 -118 -112 37 48 -7 -100 -74 -72 59 76 -87 112 45 -98 -68 -105 -126 -2 115 76 81 13 71 -14 -56 90 -64 -32 -64 45 -117 74 -67 -80 122 -73 76 49 111 -120 125 24 -8 -86 -73 -76 65 57 -78 -75 -123 3 -62 -52 -10 -118 38 -74 107 -26 -28 -10 49 -95 -90 -85 88 -14 -36 -57 122 90 -32 114 4 -105 38 70 -48 -40 -5 85 -36 -67 33 -46 72 71 -120 -77 46 108 -87 95 14 79 10 102 65 
29 29 29 29 29 29 29 29 29 29 29 29 29 29 29 29 29 29 29 29 29 29 29 29 29 29 29 29 29 29 29 29 29 29 29 29 29 29 29 29 29 29 29 29 29 29 29 29 29 29 29 29 29 29 29 29 29 29 29 29 29 29 29 29 29 29 29 29 29 29 29 29 29 29 29 29 29 29 29 29 29 29 29 29 29 29 29 29 29 29 29 29 29 29 29 29 29 29 29 29 29 29 29 29 29 29 29 29 29 29 29 29 29 29 29 29 29 29 29 29 29 29 29 29 29 29 29 29 29 29 29 29 29 29 29 29 29 29 29 29 29 29 29 29 29 29 29 29 29 29 29 29 29 29 29 29 29 29 29 29 29 29 29 29 29 29 29 29 29 29 29 29 29 29 29 29 29 29 29 29 29 29 29 29 29 29 29 29 29 29 29 29 
-25 46 -68 65 14 46 69 -91 85 -117 117 45 -122 -54 9 68 -21 -37 -116 50 100 63 96 -48 -24 -65 -34 55 -54 69 120 -79 115 52 -14 -127 99 55 38 -72 -61 -101 -27 73 101 -17 -115 80 -54 25 -126 46 88 -29 -1 64 -94 -35 119 108 34 -16 29 -107 36 15 22 -121 71 60 63 10 -41 37 83 60 20 -31 -116 -34 -6 15 13 83 -14 12 -109 -108 -23 11 1 12 -5 30 -95 31 46 -72 -89 117 -12 -26 127 -52 11 -46 8 31 -77 -107 -2 -82 -92 11 1 -106 23 -108 42 0 -97 43 12 -102 74 -82 -70 120 102 97 -19 90 71 108 38 83 62 47 114 -14 -60 112 -96 104 123 -95 -2 -110 53 40 -109 -43 84 -97 111 -98 77 41 22 -77 -118 3 14 -46 111 52 37 -83 99 -105 -97 39 8 63 -113 -125 -32 -115 22 22 -74 -87 -21 10 72 90 -88 -106 -124 -66 73 14 
31 31 31 31 31 31 31 31 31 31 31 31 31 31 31 31 31 31 31 31 31 31 31 31 31 31 31 31 31 31 31 31 31 31 31 31 31 31 31 31 31 31 31 31 31 31 31 31 31 31 31 31 31 31 31 31 31 31 31 31 31 31 31 31 31 31 31 31 31 31 31 31 31 31 31 31 31 31 31 31 31 31 31 31 31 31 31 31 31 31 31 31 31 31 31 31 31 31 31 31 31 31 31 31 31 31 31 31 31 31 31 31 31 31 31 31 31 31 31 31 31 31 31 31 31 31 31 31 31 31 31 31 31 31 31 31 31 31 31 31 31 31 31 31 31 31 31 31 31 31 31 31 31 31 31 31 31 31 31 31 31 31 31 31 31 31 31 31 31 31 31 31 31 31 31 31 31 31 31 31 31 31 31 31 31 31 31 31 31 31 31 31 
-63 87 -32 48 -116 5 -35 -17 -99 125 23 -91 -68 -90 40 -99 52 62 -77 -22 -25 -98 -12 48 -8 -100 -58 124 90 15 -117 27 103 107 75 -13 113 40 -30 14 -91 -7 -77 98 -96 -37 -1 -44 26 -78 -66 1 80 -78 49 72 78 -9 -59 -88 7 80 -61 110 -69 14 97 44 54 67 58 -36 61 -19 62 -35 -55 61 -79 -29 -17 111 -28 63 33 22 -121 111 13 76 23 20 -100 -38 -126 88 -24 -29 -124 30 39 -65 -6 100 -84 56 65 117 117 -14 88 100 97 61 -93 -126 83 43 -15 96 119 8 117 20 -30 -9 108 -54 -37 -16 -24 2 -81 -29 102 92 27 -89 -47 -111 -103 42 -11 -6 103 -103 124 -70 -60 109 26 59 117 -113 79 87 -121 -69 33 98 -84 9 100 91 -20 -54 -73 8 113 -119 -103 10 -77 -114 4 26 39 -128 -44 -21 -19 -18 39 98 126 118 -71 5 50 -38 103 -34 
33 33 33 33 33 33 33 33 33 33 33 33 33 33 33 33 33 33 33 33 33 33 33 33 33 33 33 33 33 33 33 33 33 33 33 33 33 33 33 33 33 33 33 33 33 33 33 33 33 33 33 33 33 33 33 33 33 33 33 33 33 33 33 33 33 33 33 33 33 33 33 33 33 33 33 33 33 33 33 33 33 33 33 33 33 33 33 33 33 33 33 33 33 33 33 33 33 33 33 33 33 33 33 33 33 33 33 33 33 33 33 33 33 33 33 33 33 33 33 33 33 33 33 33 33 33 33 33 33 33 33 33 33 33 33 33 33 33 33 33 33 33 33 33 33 33 33 33 33 33 33 33 33 33 33 33 33 33 33 33 33 33 33 33 33 33 33 33 33 33 33 33 33 33 33 33 33 33 33 33 33 33 33 33 33 33 33 33 33 33 33 33 
-29 -53 57 -48 -107 -15 -40 6 122 113 16 45 -1 20 71 39 -108 27 18 -127 9 57 -29 -121 -80 -100 -116 -30 118 -13 -64 89 -66 -7 41 83 -22 1 89 100 114 105 -111 114 125 -40 -103 17 -13 -85 -110 -3 -27 117 -124 -107 17 17 119 -121 4 55 -31 -61 48 10 22 27 12 112 127 126 -39 17 -16 87 -23 -119 104 -35 53 -5 -38 26 112 94 -81 -126 111 38 9 116 93 -22 55 -115 -11 77 -88 1 -67 40 127 -105 57 112 -18 34 -7 86 -1 46 81 -39 72 -62 56 -9 68 -89 29 77 27 122 56 82 8 45 -96 -80 46 93 -40 -83 -12 17 29 -30 52 23 57 51 69 -118 13 -114 76 69 -123 -112 -20 -93 -34 8 29 22 90 37 67 -6 -42 113 88 -82 30 76 -64 60 47 -12 83 104 39 -104 -14 52 38 63 121 -84 -49 102 79 -83 110 108 -61 -56 -110 6 -61 104 
35 35 35 35 35 35 35 35 35 35 35 35 35 35 35 35 35 35 35 35 35 35 35 35 35 35 35 35 35 35 35 35 35 35 35 35 35 35 35 35 35 35 35 35 35 35 35 35 35 35 35 35 35 35 35 35 35 35 35 35 35 35 35 35 35 35 35 35 35 35 35 35 35 35 35 35 35 35 35 35 35 35 35 35 35 35 35 35 35 35 35 35 35 35 35 35 35 35 35 35 35 35 35 35 35 35 35 35 35 35 35 35 35 35 35 35 35 35 35 35 35 35 35 35 35 35 35 35 35 35 35 35 35 35 35 35 35 35 35 35 35 35 35 35 35 35 35 35 35 35 35 35 35 35 35 35 35 35 35 35 35 35 35 35 35 35 35 35 35 35 35 35 35 35 35 35 35 35 35 35 35 35 35 35 35 35 35 35 35 35 35 35 
119 27 22 -106 103 -42 -46 -106 -54 37 -2 -14 -67 -15 38 -28 48 -96 -112 -1 6 -33 -83 116 75 112 60 -35 119 -1 69 -18 26 92 -124 -126 50 86 24 -3 123 23 -17 57 8 21 29 56 -75 -83 55 -69 -116 -28 47 -41 85 108 -75 -52 107 -6 -70 -122 86 63 8 -119 -107 32 -122 17 55 117 74 63 -118 103 119 64 20 -81 -5 -96 -109 43 119 -24 -105 44 -76 2 39 111 -120 125 -82 -112 6 67 -79 -116 84 -24 1 -98 40 -116 5 -97 -52 25 78 -57 -71 -30 -14 49 -54 -119 93 127 -116 -124 -18 20 2 -100 -91 8 -33 86 -107 52 62 -106 -46 102 34 -40 6 -18 -15 84 -74 -85 54 -88 -36 1 50 57 -128 -66 -66 110 -46 -64 10 119 -56 -23 -51 93 29 12 -12 -16 114 22 -56 120 5 -71 -51 -69 100 3 99 64 4 -107 122 -124 83 56 -14 38 -8 -4 -99 -64 
37 37 37 37 37 37 37 37 37 37 37 37 37 37 37 37 37 37 37 37 37 37 37 37 37 37 37 37 37 37 37 37 37 37 37 37 37 37 37 37 37 37 37 37 37 37 37 37 37 37 37 37 37 37 37 37 37 37 37 37 37 37 37 37 37 37 37 37 37 37 37 37 37 37 37 37 37 37 37 37 37 37 37 37 37 37 37 37 37 37 37 37 37 37 37 37 37 37 37 37 37 37 37 37 37 37 37 37 37 37 37 37 37 37 37 37 37 37 37 37 37 37 37 37 37 37 37 37 37 37 37 37 37 37 37 37 37 37 37 37 37 37 37 37 37 37 37 37 37 37 37 37 37 37 37 37 37 37 37 37 37 37 37 37 37 37 37 37 37 37 37 37 37 37 37 37 37 37 37 37 37 37 37 37 37 37 37 37 37 37 37 37 
-26 107 30 3 119 18 -13 -23 40 -69 98 45 117 47 -24 -39 50 76 26 55 -31 -108 -69 53 -52 -82 91 -60 -86 -8 -124 -112 99 -94 -108 -38 -76 -121 -60 -35 67 38 10 -72 85 -13 -111 -121 63 -85 -66 32 63 122 85 11 40 -80 -49 -46 -87 84 99 12 -10 -9 -25 -85 126 -85 -120 -63 -47 -110 121 38 -123 11 -83 -60 -74 108 -27 -10 -26 58 1 14 -21 -47 -32 -108 37 67 -96 27 58 -121 -58 -71 50 78 122 3 -31 -12 41 102 -1 -41 43 -75 67 16 -85 41 74 -83 55 53 126 23 -55 -93 91 106 -66 -107 -15 -123 78 36 -45 -55 39 -76 -67 81 27 -68 40 70 113 107 86 29 -108 -96 -54 -53 -42 72 -30 -97 -21 61 9 -87 -45 -5 46 33 31 2 -22 70 -74 -89 -105 -47 99 -65 23 -43 42 109 -14 -66 14 -68 -119 -28 4 108 -125 -17 -87 -115 -104 124 -120 -57 
39 39 39 39 39 39 39 39 39 39 39 39 39 39 39 39 39 39 39 39 39 39 39 39 39 39 39 39 39 39 39 39 39 39 39 39 39 39 39 39 39 39 39 39 39 39 39 39 39 39 39 39 39 39 39 39 39 39 39 39 39 39 39 39 39 39 39 39 39 39 39 39 39 39 39 39 39 39 39 39 39 39 39 39 39 39 39 39 39 39 39 39 39 39 39 39 39 39 39 39 39 39 39 39 39 39 39 39 39 39 39 39 39 39 39 39 39 39 39 39 39 39 39 39 39 39 39 39 39 39 39 39 39 39 39 39 39 39 39 39 39 39 39 39 39 39 39 39 39 39 39 39 39 39 39 39 39 39 39 39 39 39 39 39 39 39 39 39 39 39 39 39 39 39 39 39 39 39 39 39 39 39 39 39 39 39 39 39 39 39 39 39 
-98 -89 -55 -120 -19 127 48 -123 81 -109 68 104 104 111 -42 90 45 -28 22 -73 -56 26 35 75 9 -52 -40 -94 73 96 105 -25 7 50 111 -11 -79 -97 122 2 51 -66 107 -101 45 65 -10 91 37 12 18 -19 39 53 56 48 1 17 -46 74 113 59 49 121 109 -95 110 31 64 -24 33 115 -90 -116 15 -44 -51 5 47 -14 17 65 -33 56 118 24 105 119 41 59 -62 -102 119 -13 19 -28 -108 -127 3 -43 105 37 72 16 -79 87 -28 127 92 19 113 110 84 81 -90 -54 105 15 65 -110 75 3 44 -62 -9 64 -90 -117 -63 -86 96 43 -49 -87 59 -128 0 31 -1 93 50 113 -53 -122 -62 113 80 43 -127 -111 -67 -52 -107 -23 -114 -116 41 52 23 -21 -34 120 22 -83 33 81 46 33 112 45 126 -94 -98 73 40 96 -69 120 -117 60 9 72 8 -98 50 -106 42 91 -54 66 70 -87 
41 41 41 41 41 41 41 41 41 41 41 41 41 41 41 41 41 41 41 41 41 41 41 41 41 41 41 41 41 41 41 41 41 41 41 41 41 41 41 41 41 41 41 41 41 41 41 41 41 41 41 41 41 41 41 41 41 41 41 41 41 41 41 41 41 41 41 41 41 41 41 41 41 41 41 41 41 41 41 41 41 41 41 41 41 41 41 41 41 41 41 41 41 41 41 41 41 41 41 41 41 41 41 41 41 41 41 41 41 41 41 41 41 41 41 41 41 41 41 41 41 41 41 41 41 41 41 41 41 41 41 41 41 41 41 41 41 41 41 41 41 41 41 41 41 41 41 41 41 41 41 41 41 41 41 41 41 41 41 41 41 41 41 41 41 41 41 41 41 41 41 41 41 41 41 41 41 41 41 41 41 41 41 41 41 41 41 41 41 41 41 41 
-70 92 86 -37 -83 -124 -4 29 -78 123 -65 80 -60 -25 -79 127 95 60 -69 105 -123 -61 7 -73 89 50 18 36 116 89 -51 46 -75 35 9 99 -88 5 -128 90 -128 64 -86 69 39 91 -60 -121 -104 -128 -16 29 67 -9 -44 -99 41 -26 -63 -99 63 -114 -53 -11 -79 -44 88 89 -38 -40 -77 90 24 94 -97 64 -71 100 -57 81 -28 -73 110 39 -82 66 -60 -40 41 -123 117 104 19 65 93 -59 21 -75 30 -17 -114 -46 74 -90 48 -23 -26 -23 77 -83 59 49 100 -87 89 19 -20 29 -21 21 -93 96 125 -74 -95 -37 123 -73 -112 -102 -90 30 108 -16 -59 -100 -38 -85 -123 39 89 -64 89 -67 106 -78 -48 86 -49 -69 107 114 28 -24 41 -67 -61 -92 116 84 62 27 114 -86 11 55 70 -27 -29 -52 13 60 -116 102 -7 -10 24 -54 76 -25 -123 -73 90 -95 -96 -125 95 99 39 -45 -73 102 
43 43 43 43 43 43 43 43 43 43 43 43 43 43 43 43 43 43 43 43 43 43 43 43 43 43 43 43 43 43 43 43 43 43 43 43 43 43 43 43 43 43 43 43 43 43 43 43 43 43 43 43 43 43 43 43 43 43 43 43 43 43 43 43 43 43 43 43 43 43 43 43 43 43 43 43 43 43 43 43 43 43 43 43 43 43 43 43 43 43 43 43 43 43 43 43 43 43 43 43 43 43 43 43 43 43 43 43 43 43 43 43 43 43 43 43 43 43 43 43 43 43 43 43 43 43 43 43 43 43 43 43 43 43 43 43 43 43 43 43 43 43 43 43 43 43 43 43 43 43 43 43 43 43 43 43 43 43 43 43 43 43 43 43 43 43 43 43 43 43 43 43 43 43 43 43 43 43 43 43 43 43 43 43 43 43 43 43 43 43 43 43 
-18 42 16 -6 97 87 -33 68 35 -20 -128 -81 82 122 -90 106 68 -14 82 -55 -86 -84 107 74 47 -54 -83 86 -99 101 -68 -116 -113 -51 -122 -16 36 101 53 71 82 -75 -10 -92 47 -100 15 115 -113 97 61 57 13 -88 -125 60 114 48 -110 15 -107 79 -101 36 28 33 21 64 -121 74 -121 -39 -1 125 125 47 26 -116 -94 -87 -19 -33 -30 -6 -121 101 54 -7 -107 -55 9 43 24 -92 79 52 -58 100 116 77 -82 -5 38 -82 120 -93 -35 -110 48 127 59 29 95 29 24 -26 -126 78 -32 24 23 -23 67 47 -115 -110 99 83 -9 -41 -96 -91 -46 -58 83 75 106 48 -35 -102 -80 25 -73 15 54 -49 -11 -71 30 -43 -47 53 -66 20 101 76 -90 -56 -97 -99 -96 64 67 114 6 -106 -67 112 -57 -101 10 119 -76 -62 -122 -22 -111 123 -93 -81 81 116 -27 15 -120 74 91 47 18 -5 -52 -78 
45 45 45 45 45 45 45 45 45 45 45 45 45 45 45 45 45 45 45 45 45 45 45 45 45 45 45 45 45 45 45 45 45 45 45 45 45 45 45 45 45 45 45 45 45 45 45 45 45 45 45 45 45 45 45 45 45 45 45 45 45 45 45 45 45 45 45 45 45 45 45 45 45 45 45 45 45 45 45 45 45 45 45 45 45 45 45 45 45 45 45 45 45 45 45 45 45 45 45 45 45 45 45 45 45 45 45 45 45 45 45 45 45 45 45 45 45 45 45 45 45 45 45 45 45 45 45 45 45 45 45 45 45 45 45 45 45 45 45 45 45 45 45 45 45 45 45 45 45 45 45 45 45 45 45 45 45 45 45 45 45 45 45 45 45 45 45 45 45 45 45 45 45 45 45 45 45 45 45 45 45 45 45 45 45 45 45 45 45 45 45 45 
59 15 37 65 -90 -30 -78 109 125 -68 -28 49 126 106 28 16 -27 -65 -65 54 52 -92 70 -68 -18 -95 -21 1 -100 -72 -77 -41 -57 -40 25 109 -69 -53 -38 56 -121 -66 106 6 40 -122 22 14 69 -43 68 121 122 -118 54 104 44 33 105 -56 -39 29 -96 -95 -11 -71 14 -80 -124 -23 -23 11 -89 83 17 -48 -39 39 -34 30 -3 34 -104 119 -83 -50 -33 -39 -17 73 -95 -55 102 65 106 91 -6 120 12 126 97 -11 -118 9 72 -101 -39 33 -61 -73 63 -64 -39 -41 55 -122 -91 22 95 -107 95 1 94 -59 66 -56 33 61 64 45 -69 -94 34 69 -85 106 -31 -124 -117 -92 59 -54 100 20 -94 -101 -101 71 -79 -6 -36 17 -5 58 -42 62 2 -9 123 67 36 54 -27 70 124 -112 -80 93 20 59 1 79 6 101 99 -88 0 -2 -17 -79 -7 -52 -62 -12 6 -103 50 9 -112 -83 76 -75 
47 47 47 47 47 47 47 47 47 47 47 47 47 47 47 47 47 47 47 47 47 47 47 47 47 47 47 47 47 47 47 47 47 47 47 47 47 47 47 47 47 47 47 47 47 47 47 47 47 47 47 47 47 47 47 47 47 47 47 47 47 47 47 47 47 47 47 47 47 47 47 47 47 47 47 47 47 47 47 47 47 47 47 47 47 47 47 47 47 47 47 47 47 47 47 47 47 47 47 47 47 47 47 47 47 47 47 47 47 47 47 47 47 47 47 47 47 47 47 47 47 47 47 47 47 47 47 47 47 47 47 47 47 47 47 47 47 47 47 47 47 47 47 47 47 47 47 47 47 47 47 47 47 47 47 47 47 47 47 47 47 47 47 47 47 47 47 47 47 47 47 47 47 47 47 47 47 47 47 47 47 47 47 47 47 47 47 47 47 47 47 47 
-28 49 -5 96 -63 -84 -67 -43 -25 -66 36 -19 35 -121 -107 35 -122 -123 -44 127 81 -105 115 87 48 -90 96 -64 83 -84 117 55 -35 113 -105 -98 29 84 115 4 18 -105 -14 53 31 -121 88 -91 12 45 36 93 -60 -105 -75 -12 61 21 -76 -111 -62 42 -56 -97 -101 96 62 -72 -76 -79 -68 -57 73 -82 -4 104 54 85 13 66 -126 49 -96 70 -56 85 58 6 106 -18 -105 44 24 95 -52 -77 -65 10 107 116 -69 40 59 4 -42 55 108 12 -116 121 79 14 -86 -17 84 115 68 -114 121 -82 125 16 -37 -107 111 -89 73 47 -79 -76 -93 108 -36 -34 113 -77 21 -35 -65 -94 87 14 -80 1 -3 5 116 65 -109 -19 -16 16 -3 -53 -90 109 114 -17 -100 35 -93 63 -113 -128 29 0 51 50 -34 -14 -44 53 1 -123 54 -2 -118 -85 64 29 -104 48 46 -106 -5 -44 3 109 -61 -97 -112 102 
49 49 49 49 49 49 49 49 49 49 49 49 49 49 49 49 49 49 49 49 49 49 49 49 49 49 49 49 49 49 49 49 49 49 49 49 49 49 49 49 49 49 49 49 49 49 49 49 49 49 49 49 49 49 49 49 49 49 49 49 49 49 49 49 49 49 49 49 49 49 49 49 49 49 49 49 49 49 49 49 49 49 49 49 49 49 49 49 49 49 49 49 49 49 49 49 49 49 49 49 49 49 49 49 49 49 49 49 49 49 49 49 49 49 49 49 49 49 49 49 49 49 49 49 49 49 49 49 49 49 49 49 49 49 49 49 49 49 49 49 49 49 49 49 49 49 49 49 49 49 49 49 49 49 49 49 49 49 49 49 49 49 49 49 49 49 49 49 49 49 49 49 49 49 49 49 49 49 49 49 49 49 49 49 49 49 49 49 49 49 49 49 
-34 31 -26 -5 32 25 45 -2 12 2 51 13 -121 105 11 17 20 75 46 -83 123 92 67 118 48 70 -29 -13 -27 115 90 -61 -109 64 -66 -77 90 -21 -79 102 -19 -28 115 116 77 126 -123 98 -54 -76 15 69 16 82 -68 65 -104 -97 52 125 19 -114 64 -90 -49 -2 89 41 -23 10 -113 -41 -18 2 75 59 -128 -47 -99 74 -123 -84 -112 -107 -2 76 -42 -106 -21 11 19 -2 -103 83 -92 104 81 -3 -111 59 7 32 18 -11 34 93 49 -93 46 -50 -19 -77 123 125 73 121 -55 31 16 -75 42 35 -77 -60 119 88 44 -56 85 -66 3 93 -34 21 82 1 115 -125 -92 -95 82 -111 85 -51 15 -98 70 -40 -67 86 -115 -24 122 65 -84 -15 -103 -40 -71 -18 -106 -67 75 117 -46 -98 118 69 33 26 -25 115 -85 60 64 -70 -38 -121 -109 -105 -35 32 127 87 97 43 72 -6 4 2 -23 -102 
51 51 51 51 51 51 51 51 51 51 51 51 51 51 51 51 51 51 51 51 51 51 51 51 51 51 51 51 51 51 51 51 51 51 51 51 51 51 51 51 51 51 51 51 51 51 51 51 51 51 51 51 51 51 51 51 51 51 51 51 51 51 51 51 51 51 51 51 51 51 51 51 51 51 51 51 51 51 51 51 51 51 51 51 51 51 51 51 51 51 51 51 51 51 51 51 51 51 51 51 51 51 51 51 51 51 51 51 51 51 51 51 51 51 51 51 51 51 51 51 51 51 51 51 51 51 51 51 51 51 51 51 51 51 51 51 51 51 51 51 51 51 51 51 51 51 51 51 51 51 51 51 51 51 51 51 51 51 51 51 51 51 51 51 51 51 51 51 51 51 51 51 51 51 51 51 51 51 51 51 51 51 51 51 51 51 51 51 51 51 51 51 
-65 52 15 -111 -46 -123 -41 -12 -97 -66 103 75 -6 -88 5 -44 47 -104 107 12 -71 -21 100 26 22 -84 21 26 -82 -2 -75 109 50 -60 -1 5 74 -42 -7 -23 -108 96 52 -114 8 58 98 55 -46 -51 68 -117 -72 -88 -90 -49 84 -69 -23 3 -71 -98 112 -21 99 111 -16 -83 69 -23 -106 -39 74 -53 103 82 5 -55 -118 -41 -105 -50 99 79 118 9 30 -54 -60 8 -51 125 -90 62 104 9 -83 89 -74 -13 66 77 -52 -116 24 52 -33 29 -3 105 -12 -108 55 87 -28 -83 96 2 119 36 10 69 -95 -79 -125 10 -70 48 99 113 35 -91 -66 -16 50 -42 36 17 -13 33 122 -25 -74 -79 63 -102 94 -97 -100 -43 -60 -89 26 101 88 -99 111 18 -50 -46 -125 -15 120 65 -31 -86 23 5 -69 10 39 53 -14 -35 -26 49 119 68 -48 19 25 -108 -70 52 -6 18 -47 105 37 -97 60 -88 
53 53 53 53 53 53 53 53 53 53 53 53 53 53 53 53 53 53 53 53 53 53 53 53 53 53 53 53 53 53 53 53 53 53 53 53 53 53 53 53 53 53 53 53 53 53 53 53 53 53 53 53 53 53 53 53 53 53 53 53 53 53 53 53 53 53 53 53 53 53 53 53 53 53 53 53 53 53 53 53 53 53 53 53 53 53 53 53 53 53 53 53 53 53 53 53 53 53 53 53 53 53 53 53 53 53 53 53 53 53 53 53 53 53 53 53 53 53 53 53 53 53 53 53 53 53 53 53 53 53 53 53 53 53 53 53 53 53 53 53 53 53 53 53 53 53 53 53 53 53 53 53 53 53 53 53 53 53 53 53 53 53 53 53 53 53 53 53 53 53 53 53 53 53 53 53 53 53 53 53 53 53 53 53 53 53 53 53 53 53 53 53 
-111 -76 -22 114 94 1 120 25 12 -97 78 -2 124 52 47 -13 120 -1 6 -111 -108 -63 -59 -114 -45 -105 -9 -8 54 51 -95 -57 -25 -117 58 69 -116 -78 94 -104 81 -84 -106 -51 -32 -59 -64 88 -59 -58 -22 89 -121 -81 -25 91 70 -34 83 125 18 -12 68 -7 127 126 63 12 48 -99 -92 -127 74 59 78 42 0 14 -125 -59 -43 109 30 92 28 5 -73 99 -28 11 -32 -10 -1 36 -17 127 -93 46 -117 -45 -52 47 85 22 106 -93 64 107 -78 -61 48 -121 48 79 -29 77 84 -101 -80 56 -90 -112 46 -91 -76 30 36 87 76 -81 43 24 -33 -128 46 73 35 111 -76 -43 50 -27 92 99 52 64 -80 -120 -37 96 -63 -127 -16 -17 38 -92 13 75 -4 90 -6 39 114 -39 -89 -95 35 -54 16 -41 -96 66 -68 -4 -91 -16 60 85 121 23 -75 58 -104 -91 41 -65 74 55 10 70 -111 4 
55 55 55 55 55 55 55 55 55 55 55 55 55 55 55 55 55 55 55 55 55 55 55 55 55 55 55 55 55 55 55 55 55 55 55 55 55 55 55 55 55 55 55 55 55 55 55 55 55 55 55 55 55 55 55 55 55 55 55 55 55 55 55 55 55 55 55 55 55 55 55 55 55 55 55 55 55 55 55 55 55 55 55 55 55 55 55 55 55 55 55 55 55 55 55 55 55 55 55 55 55 55 55 55 55 55 55 55 55 55 55 55 55 55 55 55 55 55 55 55 55 55 55 55 55 55 55 55 55 55 55 55 55 55 55 55 55 55 55 55 55 55 55 55 55 55 55 55 55 55 55 55 55 55 55 55 55 55 55 55 55 55 55 55 55 55 55 55 55 55 55 55 55 55 55 55 55 55 55 55 55 55 55 55 55 55 55 55 55 55 55 55 
109 3 -34 20 -92 1 -34 -76 -40 126 -9 -107 123 -100 -123 -73 -14 -2 -49 -89 56 103 77 98 38 -105 -103 48 -35 42 53 74 45 19 94 -46 20 60 -122 -20 -69 125 -127 54 26 7 -19 12 5 -68 -77 62 36 0 -96 74 -105 57 123 116 99 -80 -66 -112 -61 28 98 -41 89 -23 -61 20 102 69 74 -128 76 55 -116 81 -12 64 -113 24 64 47 98 -40 104 -35 76 -53 -115 11 92 80 39 -66 39 -128 -89 -21 -108 14 48 -34 -114 124 22 27 -51 10 91 93 34 -101 -116 -124 115 -11 98 -64 -64 -17 -53 28 64 -14 -37 103 115 -126 82 7 -112 -126 -26 31 -2 -4 58 -52 6 -107 41 40 48 -75 -84 -92 -86 14 100 107 -2 47 -121 62 33 98 -91 -108 -27 -8 -100 117 122 -126 -108 121 126 -50 69 -124 99 110 -84 -108 35 88 56 -50 103 -100 57 101 -53 -64 -93 -20 35 72 
57 57 57 57 57 57 57 57 57 57 57 57 57 57 57 57 57 57 57 57 57 57 57 57 57 57 57 57 57 57 57 57 57 57 57 57 57 57 57 57 57 57 57 57 57 57 57 57 57 57 57 57 57 57 57 57 57 57 57 57 57 57 57 57 57 57 57 57 57 57 57 57 57 57 57 57 57 57 57 57 57 57 57 57 57 57 57 57 57 57 57 57 57 57 57 57 57 57 57 57 57 57 57 57 57 57 57 57 57 57 57 57 57 57 57 57 57 57 57 57 57 57 57 57 57 57 57 57 57 57 57 57 57 57 57 57 57 57 57 57 57 57 57 57 57 57 57 57 57 57 57 57 57 57 57 57 57 57 57 57 57 57 57 57 57 57 57 57 57 57 57 57 57 57 57 57 57 57 57 57 57 57 57 57 57 57 57 57 57 57 57 57 
-127 8 64 29 125 -69 -97 18 52 29 -32 121 -95 68 -25 77 -40 10 -91 16 -40 12 -84 17 113 119 -46 20 99 -11 93 -28 -3 -99 1 122 88 -96 -116 -116 -67 109 5 94 -79 -20 -85 -119 -9 81 -103 -49 93 69 -31 -49 -68 -77 -29 31 -88 64 4 -91 -34 5 31 54 -90 -84 -61 99 25 -56 -62 -54 -75 109 83 -84 -66 -20 123 28 49 92 -21 -19 15 -50 12 -73 15 16 92 -19 22 124 35 -68 40 -26 31 65 -81 -31 11 100 79 94 16 13 74 -117 41 123 -24 20 104 -9 -29 116 -81 -14 -123 11 -33 -101 -121 2 87 -81 -23 118 -16 -104 88 -5 -4 -89 89 12 -76 -93 -105 -34 30 127 -14 -122 119 -43 -5 38 -57 -128 49 -90 27 -71 -87 114 104 -110 -24 89 42 64 84 38 -25 -82 50 -100 81 -55 122 112 73 108 -10 -64 66 -15 -26 9 113 23 -80 -116 -48 89 
59 59 59 59 59 59 59 59 59 59 59 59 59 59 59 59 59 59 59 59 59 59 59 59 59 59 59 59 59 59 59 59 59 59 59 59 59 59 59 59 59 59 59 59 59 59 59 59 59 59 59 59 59 59 59 59 59 59 59 59 59 59 59 59 59 59 59 59 59 59 59 59 59 59 59 59 59 59 59 59 59 59 59 59 59 59 59 59 59 59 59 59 59 59 59 59 59 59 59 59 59 59 59 59 59 59 59 59 59 59 59 59 59 59 59 59 59 59 59 59 59 59 59 59 59 59 59 59 59 59 59 59 59 59 59 59 59 59 59 59 59 59 59 59 59 59 59 59 59 59 59 59 59 59 59 59 59 59 59 59 59 59 59 59 59 59 59 59 59 59 59 59 59 59 59 59 59 59 59 59 59 59 59 59 59 59 59 59 59 59 59 59 
-2 57 -21 -25 -110 21 39 -26 59 15 -108 109 -85 -26 54 37 86 127 -111 76 63 -45 62 37 -35 -81 61 -115 60 13 -26 58 70 -47 33 -40 -26 73 -65 33 88 83 -114 3 57 -60 40 -113 68 -71 -36 -125 -115 26 -87 106 -55 -26 -9 5 -13 -35 64 58 -82 97 18 -108 -86 -47 -75 2 37 67 5 94 7 45 -18 75 -25 -54 -49 116 -28 120 -34 -83 94 -43 -77 81 -78 -13 -117 96 84 -98 -12 -1 111 -87 1 -108 -20 7 -13 -13 52 -31 63 27 -85 14 -113 -113 -122 109 60 -28 66 -17 53 -12 -30 -63 84 55 95 72 54 -50 -15 55 99 -35 62 86 -47 115 55 16 -114 -30 30 30 113 -92 -117 -83 -120 -50 -99 -67 -62 127 126 23 -74 -35 95 -20 -84 81 36 15 46 98 101 -1 -43 -100 15 100 126 45 -126 -17 -47 13 -100 89 -37 57 23 -98 -71 -107 -75 111 115 20 
61 61 61 61 61 61 61 61 61 61 61 61 61 61 61 61 61 61 61 61 61 61 61 61 61 61 61 61 61 61 61 61 61 61 61 61 61 61 61 61 61 61 61 61 61 61 61 61 61 61 61 61 61 61 61 61 61 61 61 61 61 61 61 61 61 61 61 61 61 61 61 61 61 61 61 61 61 61 61 61 61 61 61 61 61 61 61 61 61 61 61 61 61 61 61 61 61 61 61 61 61 61 61 61 61 61 61 61 61 61 61 61 61 61 61 61 61 61 61 61 61 61 61 61 61 61 61 61 61 61 61 61 61 61 61 61 61 61 61 61 61 61 61 61 61 61 61 61 61 61 61 61 61 61 61 61 61 61 61 61 61 61 61 61 61 61 61 61 61 61 61 61 61 61 61 61 61 61 61 61 61 61 61 61 61 61 61 61 61 61 61 61 
92 31 101 -128 46 -108 -30 -109 -109 -72 47 -93 28 -83 -48 -98 -100 -94 -85 56 -5 -121 114 18 37 43 -88 -38 -102 27 -18 -10 58 84 118 104 -24 89 -5 123 17 42 30 45 -41 -17 -53 115 -111 118 -85 -116 -3 29 -97 34 72 71 -4 -29 98 -21 -39 -100 63 80 4 39 -87 -1 -94 -70 41 -63 -25 0 -80 -78 115 65 40 30 -51 38 60 108 72 -124 -77 69 103 21 48 65 -79 111 -111 -75 -106 58 -76 56 -12 -35 -7 -37 -35 -87 -115 80 -22 -75 111 -72 -37 -85 36 36 47 -40 105 -105 -19 -103 -40 -97 8 105 84 -98 -93 9 -42 -105 -26 -48 114 -60 121 -1 20 100 -76 -125 28 -112 46 64 -76 94 24 29 -11 6 -74 -51 -91 -66 54 -7 92 -39 2 50 112 -23 2 -30 -83 124 -31 -63 -32 -107 69 -4 37 115 60 -39 -47 85 -10 -58 91 -84 -109 0 106 -55 -7 -58 
63 63 63 63 63 63 63 63 63 63 63 63 63 63 63 63 63 63 63 63 63 63 63 63 63 63 63 63 63 63 63 63 63 63 63 63 63 63 63 63 63 63 63 63 63 63 63 63 63 63 63 63 63 63 63 63 63 63 63 63 63 63 63 63 63 63 63 63 63 63 63 63 63 63 63 63 63 63 63 63 63 63 63 63 63 63 63 63 63 63 63 63 63 63 63 63 63 63 63 63 63 63 63 63 63 63 63 63 63 63 63 63 63 63 63 63 63 63 63 63 63 63 63 63 63 63 63 63 63 63 63 63 63 63 63 63 63 63 63 63 63 63 63 63 63 63 63 63 63 63 63 63 63 63 63 63 63 63 63 63 63 63 63 63 63 63 63 63 63 63 63 63 63 63 63 63 63 63 63 63 63 63 63 63 63 63 63 63 63 63 63 63 
