P3
64 64
255
164 152 163 86 84 191 242 253 250 122 108 83 21 20 234 227 46 82 143 32 87 9 88 40 168 6 213 209 83 131 120 118 28 154 75 238 89 62 107 83 55 214 37 75 105 143 174 150 96 61 54 182 197 141 222 109 18 51 62 227 181 181 90 208 207 36 62 40 224 168 250 151 253 31 225 103 45 15 124 141 203 49 67 144 189 160 124 207 210 185 178 136 237 139 215 188 47 22 100 15 61 221 165 59 123 7 33 168 148 28 53 222 77 246 237 137 151 105 215 105 161 10 112 143 148 72 202 66 220 173 208 152 138 244 82 6 122 114 45 15 14 97 108 90 214 90 226 109 194 186 86 100 67 69 114 86 12 187 152 231 105 104 255 114 92 81 119 86 195 35 100 80 3 207 169 217 168 11 70 107 68 27 78 134 96 63 220 107 249 116 210 98 
1 1 1 1 1 1 1 1 1 1 1 1 1 1 1 1 1 1 1 1 1 1 1 1 1 1 1 1 1 1 1 1 1 1 1 1 1 1 1 1 1 1 1 1 1 1 1 1 1 1 1 1 1 1 1 1 1 1 1 1 1 1 1 1 1 1 1 1 1 1 1 1 1 1 1 1 1 1 1 1 1 1 1 1 1 1 1 1 1 1 1 1 1 1 1 1 1 1 1 1 1 1 1 1 1 1 1 1 1 1 1 1 1 1 1 1 1 1 1 1 1 1 1 1 1 1 1 1 1 1 1 1 1 1 1 1 1 1 1 1 1 1 1 1 1 1 1 1 1 1 1 1 1 1 1 1 1 1 1 1 1 1 1 1 1 1 1 1 1 1 1 1 1 1 1 1 1 1 1 1 1 1 1 1 1 1 1 1 1 1 1 1 
91 209 84 54 34 202 139 100 237 110 179 239 189 219 72 101 230 14 79 169 40 28 48 7 90 139 241 84 126 195 53 216 20 136 141 180 210 152 25 63 133 75 173 193 166 245 39 12 3 244 180 169 17 99 176 233 237 161 61 107 227 241 194 246 121 207 170 202 103 66 9 107 13 54 45 178 43 210 61 172 198 240 85 86 84 132 64 192 37 251 44 135 236 109 125 102 60 167 175 34 104 184 141 116 237 57 165 151 11 225 67 208 82 23 166 37 155 229 228 63 224 143 70 205 252 66 178 183 232 97 89 208 152 101 195 5 157 105 155 167 201 93 246 154 243 156 190 14 1 35 203 225 177 17 46 45 83 223 228 186 191 61 138 215 161 78 219 189 54 246 100 126 210 217 25 197 118 86 210 245 120 30 214 42 46 131 86 128 225 185 59 161 
3 3 3 3 3 3 3 3 3 3 3 3 3 3 3 3 3 3 3 3 3 3 3 3 3 3 3 3 3 3 3 3 3 3 3 3 3 3 3 3 3 3 3 3 3 3 3 3 3 3 3 3 3 3 3 3 3 3 3 3 3 3 3 3 3 3 3 3 3 3 3 3 3 3 3 3 3 3 3 3 3 3 3 3 3 3 3 3 3 3 3 3 3 3 3 3 3 3 3 3 3 3 3 3 3 3 3 3 3 3 3 3 3 3 3 3 3 3 3 3 3 3 3 3 3 3 3 3 3 3 3 3 3 3 3 3 3 3 3 3 3 3 3 3 3 3 3 3 3 3 3 3 3 3 3 3 3 3 3 3 3 3 3 3 3 3 3 3 3 3 3 3 3 3 3 3 3 3 3 3 3 3 3 3 3 3 3 3 3 3 3 3 
117 68 120 149 17 210 82 70 200 53 68 27 15 92 223 4 49 50 248 169 79 79 82 124 209 39 124 179 224 54 211 85 248 202 234 10 156 187 79 228 240 146 254 254 109 93 129 158 142 121 198 92 71 24 88 25 62 211 75 157 136 30 114 128 231 219 137 3 150 88 230 134 105 228 4 214 66 132 243 79 125 57 171 195 80 3 91 13 85 165 170 220 66 155 219 41 118 101 44 12 60 145 18 164 118 21 249 55 25 236 133 21 37 175 87 243 177 178 1 133 214 42 97 25 196 61 192 58 33 235 196 92 125 213 255 114 106 249 168 2 101 172 22 10 92 108 124 140 157 251 18 116 37 241 12 104 173 203 33 77 55 101 168 51 58 40 36 35 160 75 36 132 246 184 13 209 164 137 221 65 132 238 52 41 95 63 16 140 138 49 216 64 
5 5 5 5 5 5 5 5 5 5 5 5 5 5 5 5 5 5 5 5 5 5 5 5 5 5 5 5 5 5 5 5 5 5 5 5 5 5 5 5 5 5 5 5 5 5 5 5 5 5 5 5 5 5 5 5 5 5 5 5 5 5 5 5 5 5 5 5 5 5 5 5 5 5 5 5 5 5 5 5 5 5 5 5 5 5 5 5 5 5 5 5 5 5 5 5 5 5 5 5 5 5 5 5 5 5 5 5 5 5 5 5 5 5 5 5 5 5 5 5 5 5 5 5 5 5 5 5 5 5 5 5 5 5 5 5 5 5 5 5 5 5 5 5 5 5 5 5 5 5 5 5 5 5 5 5 5 5 5 5 5 5 5 5 5 5 5 5 5 5 5 5 5 5 5 5 5 5 5 5 5 5 5 5 5 5 5 5 5 5 5 5 
149 129 114 78 40 149 113 199 223 20 202 85 76 215 39 239 96 4 175 99 113 227 139 79 161 155 218 170 75 179 233 95 179 218 172 218 238 156 33 77 48 106 162 123 65 72 233 32 202 152 3 186 250 141 9 156 167 227 197 113 22 175 207 200 9 251 34 247 151 193 68 70 43 101 192 235 172 169 138 245 193 140 175 187 153 56 87 191 154 156 49 175 75 127 246 210 122 151 201 145 215 14 214 129 241 23 108 158 63 246 19 255 2 194 187 154 249 145 90 19 45 138 193 246 9 55 201 3 205 18 147 36 158 232 164 144 254 144 46 62 6 64 188 7 129 246 161 249 136 250 12 52 4 76 170 139 130 242 141 206 4 159 241 162 136 150 50 6 38 222 194 43 157 127 176 31 117 81 151 124 202 163 48 77 110 217 216 240 203 228 190 206 
7 7 7 7 7 7 7 7 7 7 7 7 7 7 7 7 7 7 7 7 7 7 7 7 7 7 7 7 7 7 7 7 7 7 7 7 7 7 7 7 7 7 7 7 7 7 7 7 7 7 7 7 7 7 7 7 7 7 7 7 7 7 7 7 7 7 7 7 7 7 7 7 7 7 7 7 7 7 7 7 7 7 7 7 7 7 7 7 7 7 7 7 7 7 7 7 7 7 7 7 7 7 7 7 7 7 7 7 7 7 7 7 7 7 7 7 7 7 7 7 7 7 7 7 7 7 7 7 7 7 7 7 7 7 7 7 7 7 7 7 7 7 7 7 7 7 7 7 7 7 7 7 7 7 7 7 7 7 7 7 7 7 7 7 7 7 7 7 7 7 7 7 7 7 7 7 7 7 7 7 7 7 7 7 7 7 7 7 7 7 7 7 
4 48 239 11 69 33 16 106 254 210 20 28 208 195 58 196 148 80 65 94 114 112 171 224 200 3 208 19 102 14 224 105 188 208 115 1 112 3 106 238 212 252 10 164 192 194 104 84 18 40 49 132 23 91 100 94 220 179 112 67 64 81 43 252 160 30 252 16 32 230 125 115 226 134 150 34 72 125 244 90 37 38 93 59 128 192 153 93 242 136 31 50 216 200 46 247 229 43 135 132 17 4 246 114 138 12 148 81 137 136 170 173 173 7 103 173 70 127 137 56 8 39 106 95 238 23 214 212 65 93 215 208 223 78 67 232 89 86 58 97 221 227 141 11 106 244 55 47 242 191 103 121 229 80 216 211 102 46 39 39 138 254 118 232 76 56 209 36 141 11 133 234 109 18 244 86 133 43 133 247 105 107 112 205 186 199 160 159 244 71 69 253 
9 9 9 9 9 9 9 9 9 9 9 9 9 9 9 9 9 9 9 9 9 9 9 9 9 9 9 9 9 9 9 9 9 9 9 9 9 9 9 9 9 9 9 9 9 9 9 9 9 9 9 9 9 9 9 9 9 9 9 9 9 9 9 9 9 9 9 9 9 9 9 9 9 9 9 9 9 9 9 9 9 9 9 9 9 9 9 9 9 9 9 9 9 9 9 9 9 9 9 9 9 9 9 9 9 9 9 9 9 9 9 9 9 9 9 9 9 9 9 9 9 9 9 9 9 9 9 9 9 9 9 9 9 9 9 9 9 9 9 9 9 9 9 9 9 9 9 9 9 9 9 9 9 9 9 9 9 9 9 9 9 9 9 9 9 9 9 9 9 9 9 9 9 9 9 9 9 9 9 9 9 9 9 9 9 9 9 9 9 9 9 9 
196 187 230 143 242 183 178 255 193 182 233 173 72 221 4 204 135 136 67 111 242 179 60 44 249 219 74 238 161 143 235 101 201 81 243 59 8 38 58 72 219 35 245 35 127 120 111 133 255 177 243 113 227 47 28 221 138 228 75 43 115 54 16 187 7 130 246 14 167 48 213 3 210 74 37 81 193 147 86 192 196 73 176 167 120 203 132 129 47 78 171 162 4 58 220 10 188 210 150 226 130 107 228 84 180 137 36 117 155 121 180 95 66 100 7 57 174 10 185 221 88 227 254 91 30 90 227 89 45 121 59 46 228 159 129 24 40 36 141 194 29 192 161 94 164 167 22 209 48 206 46 7 177 171 224 206 6 195 166 50 188 225 95 160 255 95 55 39 2 67 104 30 4 9 250 167 47 16 247 222 93 38 228 15 208 69 92 213 135 3 134 67 
11 11 11 11 11 11 11 11 11 11 11 11 11 11 11 11 11 11 11 11 11 11 11 11 11 11 11 11 11 11 11 11 11 11 11 11 11 11 11 11 11 11 11 11 11 11 11 11 11 11 11 11 11 11 11 11 11 11 11 11 11 11 11 11 11 11 11 11 11 11 11 11 11 11 11 11 11 11 11 11 11 11 11 11 11 11 11 11 11 11 11 11 11 11 11 11 11 11 11 11 11 11 11 11 11 11 11 11 11 11 11 11 11 11 11 11 11 11 11 11 11 11 11 11 11 11 11 11 11 11 11 11 11 11 11 11 11 11 11 11 11 11 11 11 11 11 11 11 11 11 11 11 11 11 11 11 11 11 11 11 11 11 11 11 11 11 11 11 11 11 11 11 11 11 11 11 11 11 11 11 11 11 11 11 11 11 11 11 11 11 11 11 
99 228 98 98 194 153 8 196 219 238 97 94 247 219 132 165 106 124 131 199 161 231 85 240 44 176 198 50 50 76 117 148 176 86 117 114 110 251 54 74 234 23 39 97 241 171 6 91 39 137 34 71 112 118 55 27 166 124 76 215 200 64 235 247 150 223 105 131 219 31 204 69 53 115 165 165 30 42 255 195 178 161 137 161 150 191 187 187 187 135 19 3 198 253 249 219 220 98 95 55 255 170 250 179 29 159 88 185 201 215 124 250 120 5 156 141 68 214 200 126 93 218 128 163 215 121 126 51 90 92 233 90 134 227 13 162 3 101 219 75 187 214 69 178 91 96 63 158 55 7 155 147 224 27 54 55 147 52 233 108 143 210 197 21 181 82 55 55 54 18 129 240 103 198 162 193 165 96 222 219 230 121 111 198 147 36 125 165 87 102 18 102 
13 13 13 13 13 13 13 13 13 13 13 13 13 13 13 13 13 13 13 13 13 13 13 13 13 13 13 13 13 13 13 13 13 13 13 13 13 13 13 13 13 13 13 13 13 13 13 13 13 13 13 13 13 13 13 13 13 13 13 13 13 13 13 13 13 13 13 13 13 13 13 13 13 13 13 13 13 13 13 13 13 13 13 13 13 13 13 13 13 13 13 13 13 13 13 13 13 13 13 13 13 13 13 13 13 13 13 13 13 13 13 13 13 13 13 13 13 13 13 13 13 13 13 13 13 13 13 13 13 13 13 13 13 13 13 13 13 13 13 13 13 13 13 13 13 13 13 13 13 13 13 13 13 13 13 13 13 13 13 13 13 13 13 13 13 13 13 13 13 13 13 13 13 13 13 13 13 13 13 13 13 13 13 13 13 13 13 13 13 13 13 13 
56 86 249 108 167 175 163 92 64 163 76 167 105 109 104 142 205 71 105 179 191 87 248 210 123 244 119 81 90 8 54 17 94 48 125 132 222 159 224 31 66 171 197 43 152 45 184 101 242 33 151 178 247 15 132 114 4 122 66 93 2 120 110 95 167 106 98 5 9 193 35 201 236 103 243 132 20 171 104 6 76 254 183 67 13 186 52 16 180 117 109 181 108 90 147 146 195 244 151 75 54 57 20 34 32 135 37 51 50 140 56 252 138 111 190 22 168 113 165 92 102 145 17 209 234 163 100 45 24 122 119 204 178 10 109 209 144 145 131 66 29 187 189 38 169 124 186 81 236 95 173 82 239 61 163 89 224 7 133 119 128 123 67 177 133 175 3 21 64 133 213 219 191 147 128 104 15 185 57 122 25 229 76 135 34 238 224 129 116 101 247 115 
15 15 15 15 15 15 15 15 15 15 15 15 15 15 15 15 15 15 15 15 15 15 15 15 15 15 15 15 15 15 15 15 15 15 15 15 15 15 15 15 15 15 15 15 15 15 15 15 15 15 15 15 15 15 15 15 15 15 15 15 15 15 15 15 15 15 15 15 15 15 15 15 15 15 15 15 15 15 15 15 15 15 15 15 15 15 15 15 15 15 15 15 15 15 15 15 15 15 15 15 15 15 15 15 15 15 15 15 15 15 15 15 15 15 15 15 15 15 15 15 15 15 15 15 15 15 15 15 15 15 15 15 15 15 15 15 15 15 15 15 15 15 15 15 15 15 15 15 15 15 15 15 15 15 15 15 15 15 15 15 15 15 15 15 15 15 15 15 15 15 15 15 15 15 15 15 15 15 15 15 15 15 15 15 15 15 15 15 15 15 15 15 
96 58 36 228 104 165 120 39 170 205 2 105 96 1 81 237 186 137 103 82 110 50 88 15 32 56 16 19 29 7 133 124 192 41 223 167 205 214 206 119 163 207 96 3 80 176 111 137 184 86 90 165 135 177 179 39 233 194 57 133 73 190 128 136 230 95 47 51 180 252 170 88 76 137 217 27 184 73 163 112 158 252 21 164 45 71 202 149 10 4 26 209 193 153 216 167 119 7 217 171 131 3 130 78 11 91 104 194 35 11 50 64 134 70 228 50 141 174 199 22 177 224 102 241 249 62 24 239 195 113 26 70 115 155 147 253 118 122 191 152 4 113 88 137 54 60 187 66 105 2 87 154 97 60 139 90 248 163 201 188 20 226 129 6 253 148 130 115 14 66 138 18 50 225 26 103 156 84 169 6 85 127 31 182 59 41 143 51 203 215 238 94 
17 17 17 17 17 17 17 17 17 17 17 17 17 17 17 17 17 17 17 17 17 17 17 17 17 17 17 17 17 17 17 17 17 17 17 17 17 17 17 17 17 17 17 17 17 17 17 17 17 17 17 17 17 17 17 17 17 17 17 17 17 17 17 17 17 17 17 17 17 17 17 17 17 17 17 17 17 17 17 17 17 17 17 17 17 17 17 17 17 17 17 17 17 17 17 17 17 17 17 17 17 17 17 17 17 17 17 17 17 17 17 17 17 17 17 17 17 17 17 17 17 17 17 17 17 17 17 17 17 17 17 17 17 17 17 17 17 17 17 17 17 17 17 17 17 17 17 17 17 17 17 17 17 17 17 17 17 17 17 17 17 17 17 17 17 17 17 17 17 17 17 17 17 17 17 17 17 17 17 17 17 17 17 17 17 17 17 17 17 17 17 17 
186 112 227 183 131 228 169 144 165 51 33 214 21 59 62 176 14 102 53 99 228 83 152 31 124 39 209 198 254 191 164 56 174 7 110 49 234 23 65 144 73 97 229 220 27 35 13 41 8 65 11 108 20 162 10 15 72 218 84 197 154 247 124 199 125 233 120 231 127 56 246 72 24 219 36 51 126 48 218 133 240 228 240 4 6 250 18 204 212 101 146 237 220 14 53 216 119 172 191 245 99 181 188 122 145 224 44 142 143 6 19 127 105 4 2 237 125 19 186 81 247 76 190 83 216 242 43 79 30 106 196 128 158 128 249 47 223 38 60 238 170 79 109 20 209 111 1 78 1 58 30 119 133 219 201 221 77 116 44 106 221 111 105 123 111 99 42 205 8 101 187 49 51 41 195 4 23 68 81 23 125 111 14 130 201 214 95 23 201 10 128 38 
19 19 19 19 19 19 19 19 19 19 19 19 19 19 19 19 19 19 19 19 19 19 19 19 19 19 19 19 19 19 19 19 19 19 19 19 19 19 19 19 19 19 19 19 19 19 19 19 19 19 19 19 19 19 19 19 19 19 19 19 19 19 19 19 19 19 19 19 19 19 19 19 19 19 19 19 19 19 19 19 19 19 19 19 19 19 19 19 19 19 19 19 19 19 19 19 19 19 19 19 19 19 19 19 19 19 19 19 19 19 19 19 19 19 19 19 19 19 19 19 19 19 19 19 19 19 19 19 19 19 19 19 19 19 19 19 19 19 19 19 19 19 19 19 19 19 19 19 19 19 19 19 19 19 19 19 19 19 19 19 19 19 19 19 19 19 19 19 19 19 19 19 19 19 19 19 19 19 19 19 19 19 19 19 19 19 19 19 19 19 19 19 
121 233 161 103 203 74 52 82 46 111 130 97 23 197 100 45 9 53 194 133 163 79 7 108 38 101 130 110 111 130 148 103 234 180 77 181 253 255 134 170 110 135 11 132 76 238 48 84 35 114 217 197 192 95 176 101 196 178 211 178 52 230 152 30 154 228 82 151 227 87 65 209 221 203 212 42 185 132 125 219 117 213 32 180 53 207 26 120 1 108 42 52 209 193 208 107 37 161 129 8 247 65 88 213 12 45 126 68 176 250 31 37 208 189 216 132 141 113 251 13 92 37 65 45 101 144 151 137 177 151 16 168 216 104 252 227 20 122 40 195 244 197 103 68 131 63 199 143 48 194 155 11 102 91 56 202 235 78 210 28 229 225 195 189 200 64 32 219 57 71 30 45 140 132 112 15 67 55 29 241 120 55 251 221 146 51 167 252 1 248 24 229 
21 21 21 21 21 21 21 21 21 21 21 21 21 21 21 21 21 21 21 21 21 21 21 21 21 21 21 21 21 21 21 21 21 21 21 21 21 21 21 21 21 21 21 21 21 21 21 21 21 21 21 21 21 21 21 21 21 21 21 21 21 21 21 21 21 21 21 21 21 21 21 21 21 21 21 21 21 21 21 21 21 21 21 21 21 21 21 21 21 21 21 21 21 21 21 21 21 21 21 21 21 21 21 21 21 21 21 21 21 21 21 21 21 21 21 21 21 21 21 21 21 21 21 21 21 21 21 21 21 21 21 21 21 21 21 21 21 21 21 21 21 21 21 21 21 21 21 21 21 21 21 21 21 21 21 21 21 21 21 21 21 21 21 21 21 21 21 21 21 21 21 21 21 21 21 21 21 21 21 21 21 21 21 21 21 21 21 21 21 21 21 21 
90 90 34 34 25 65 125 82 8 26 253 147 158 110 33 96 36 61 81 28 115 203 248 132 254 32 128 126 24 23 99 113 240 132 19 9 196 15 90 203 40 88 221 197 69 253 164 231 185 116 3 172 64 123 48 189 154 48 59 49 197 157 162 181 160 52 190 227 66 151 175 105 110 12 174 178 10 82 26 194 70 28 110 133 22 30 66 175 204 124 224 145 152 2 71 56 180 132 27 245 27 73 221 137 85 139 186 221 93 211 159 34 111 141 166 132 42 103 179 245 226 19 6 249 147 76 49 71 207 202 60 106 147 152 114 231 163 44 196 127 127 226 160 237 238 70 240 151 172 35 140 14 53 146 7 199 93 182 141 172 255 72 149 146 224 7 248 131 50 60 2 176 31 161 29 140 102 141 36 145 175 47 158 100 64 36 170 157 217 56 200 216 
23 23 23 23 23 23 23 23 23 23 23 23 23 23 23 23 23 23 23 23 23 23 23 23 23 23 23 23 23 23 23 23 23 23 23 23 23 23 23 23 23 23 23 23 23 23 23 23 23 23 23 23 23 23 23 23 23 23 23 23 23 23 23 23 23 23 23 23 23 23 23 23 23 23 23 23 23 23 23 23 23 23 23 23 23 23 23 23 23 23 23 23 23 23 23 23 23 23 23 23 23 23 23 23 23 23 23 23 23 23 23 23 23 23 23 23 23 23 23 23 23 23 23 23 23 23 23 23 23 23 23 23 23 23 23 23 23 23 23 23 23 23 23 23 23 23 23 23 23 23 23 23 23 23 23 23 23 23 23 23 23 23 23 23 23 23 23 23 23 23 23 23 23 23 23 23 23 23 23 23 23 23 23 23 23 23 23 23 23 23 23 23 
254 93 234 222 99 226 224 20 31 97 68 188 129 96 199 230 108 234 119 155 153 148 126 216 183 40 244 16 222 188 232 221 152 82 59 250 52 28 142 209 251 209 13 125 176 212 226 29 62 217 183 214 109 53 47 164 219 35 179 186 95 27 23 118 108 208 240 32 235 126 240 103 79 253 227 254 81 69 27 142 30 81 228 11 5 19 174 224 180 224 26 146 251 175 9 230 127 248 6 234 118 246 81 196 115 179 66 195 247 93 208 22 45 180 159 50 70 204 145 250 172 170 12 39 216 20 14 87 139 19 65 1 136 17 68 122 195 134 188 187 98 141 80 14 65 110 63 135 58 79 1 101 120 12 140 80 32 25 39 42 170 103 43 178 247 237 44 186 242 232 244 211 117 195 225 53 176 159 59 233 238 59 206 229 198 90 54 101 241 92 142 155 
25 25 25 25 25 25 25 25 25 25 25 25 25 25 25 25 25 25 25 25 25 25 25 25 25 25 25 25 25 25 25 25 25 25 25 25 25 25 25 25 25 25 25 25 25 25 25 25 25 25 25 25 25 25 25 25 25 25 25 25 25 25 25 25 25 25 25 25 25 25 25 25 25 25 25 25 25 25 25 25 25 25 25 25 25 25 25 25 25 25 25 25 25 25 25 25 25 25 25 25 25 25 25 25 25 25 25 25 25 25 25 25 25 25 25 25 25 25 25 25 25 25 25 25 25 25 25 25 25 25 25 25 25 25 25 25 25 25 25 25 25 25 25 25 25 25 25 25 25 25 25 25 25 25 25 25 25 25 25 25 25 25 25 25 25 25 25 25 25 25 25 25 25 25 25 25 25 25 25 25 25 25 25 25 25 25 25 25 25 25 25 25 
66 184 204 57 38 248 115 151 96 230 107 84 42 203 136 217 106 67 195 215 125 17 189 67 106 114 167 218 205 54 244 142 109 193 71 18 185 185 169 152 31 147 235 72 94 242 34 71 53 100 158 50 116 218 243 93 76 27 182 152 80 170 165 60 107 235 205 163 36 118 59 67 9 165 138 229 152 43 44 76 14 201 125 1 35 113 220 110 11 146 133 217 61 43 21 167 149 97 75 185 214 5 251 94 170 5 194 193 175 238 13 188 55 10 189 90 249 25 71 4 171 76 220 231 245 112 14 138 209 88 67 39 220 189 5 134 194 198 71 113 52 210 172 234 91 232 195 84 2 137 87 172 212 178 19 73 35 32 211 115 120 149 153 84 83 29 89 148 227 31 5 150 112 48 128 203 25 67 31 153 204 245 69 32 39 87 105 73 118 187 59 109 
27 27 27 27 27 27 27 27 27 27 27 27 27 27 27 27 27 27 27 27 27 27 27 27 27 27 27 27 27 27 27 27 27 27 27 27 27 27 27 27 27 27 27 27 27 27 27 27 27 27 27 27 27 27 27 27 27 27 27 27 27 27 27 27 27 27 27 27 27 27 27 27 27 27 27 27 27 27 27 27 27 27 27 27 27 27 27 27 27 27 27 27 27 27 27 27 27 27 27 27 27 27 27 27 27 27 27 27 27 27 27 27 27 27 27 27 27 27 27 27 27 27 27 27 27 27 27 27 27 27 27 27 27 27 27 27 27 27 27 27 27 27 27 27 27 27 27 27 27 27 27 27 27 27 27 27 27 27 27 27 27 27 27 27 27 27 27 27 27 27 27 27 27 27 27 27 27 27 27 27 27 27 27 27 27 27 27 27 27 27 27 27 
80 84 64 162 112 24 181 210 54 185 105 38 105 232 240 1 171 15 153 246 131 93 22 170 179 126 114 168 184 173 149 9 1 84 42 112 235 223 67 160 24 43 197 128 19 181 128 61 68 152 51 198 244 73 112 39 70 98 207 254 15 227 134 15 182 175 253 161 142 191 66 38 233 7 37 124 188 165 184 127 61 235 69 177 179 53 215 120 150 38 245 164 9 123 50 191 170 174 223 183 110 33 220 87 167 2 82 99 38 11 225 225 117 165 146 167 217 106 158 238 143 148 18 24 142 67 86 56 113 53 239 222 86 203 180 124 76 7 94 113 144 190 83 132 99 100 170 188 205 72 170 220 219 60 243 106 253 73 33 110 125 16 76 82 91 1 205 166 134 43 151 149 232 105 25 203 204 66 135 154 137 176 118 228 235 105 205 233 49 237 87 173 
29 29 29 29 29 29 29 29 29 29 29 29 29 29 29 29 29 29 29 29 29 29 29 29 29 29 29 29 29 29 29 29 29 29 29 29 29 29 29 29 29 29 29 29 29 29 29 29 29 29 29 29 29 29 29 29 29 29 29 29 29 29 29 29 29 29 29 29 29 29 29 29 29 29 29 29 29 29 29 29 29 29 29 29 29 29 29 29 29 29 29 29 29 29 29 29 29 29 29 29 29 29 29 29 29 29 29 29 29 29 29 29 29 29 29 29 29 29 29 29 29 29 29 29 29 29 29 29 29 29 29 29 29 29 29 29 29 29 29 29 29 29 29 29 29 29 29 29 29 29 29 29 29 29 29 29 29 29 29 29 29 29 29 29 29 29 29 29 29 29 29 29 29 29 29 29 29 29 29 29 29 29 29 29 29 29 29 29 29 29 29 29 
253 35 127 215 162 76 125 40 246 147 188 94 251 84 41 200 149 175 225 157 223 214 129 202 63 78 51 238 187 138 155 184 172 153 15 78 101 11 244 91 158 48 184 153 3 225 224 23 16 193 179 238 151 53 57 85 2 107 67 188 244 94 243 32 246 2 236 218 140 96 53 42 15 109 194 17 205 35 39 220 227 90 75 123 14 131 207 15 109 146 75 225 239 189 1 101 63 109 64 202 204 243 243 91 96 53 107 172 87 18 9 59 107 83 53 120 85 131 6 193 148 207 162 3 141 35 104 203 143 39 149 218 153 8 180 121 60 32 37 19 176 45 204 154 254 1 18 210 3 150 148 151 102 181 153 242 215 128 61 229 38 209 64 191 216 243 56 147 146 92 37 66 9 240 219 134 112 108 89 242 3 236 137 231 161 161 89 248 34 149 93 71 
31 31 31 31 31 31 31 31 31 31 31 31 31 31 31 31 31 31 31 31 31 31 31 31 31 31 31 31 31 31 31 31 31 31 31 31 31 31 31 31 31 31 31 31 31 31 31 31 31 31 31 31 31 31 31 31 31 31 31 31 31 31 31 31 31 31 31 31 31 31 31 31 31 31 31 31 31 31 31 31 31 31 31 31 31 31 31 31 31 31 31 31 31 31 31 31 31 31 31 31 31 31 31 31 31 31 31 31 31 31 31 31 31 31 31 31 31 31 31 31 31 31 31 31 31 31 31 31 31 31 31 31 31 31 31 31 31 31 31 31 31 31 31 31 31 31 31 31 31 31 31 31 31 31 31 31 31 31 31 31 31 31 31 31 31 31 31 31 31 31 31 31 31 31 31 31 31 31 31 31 31 31 31 31 31 31 31 31 31 31 31 31 
102 156 6 189 16 188 207 161 152 244 99 160 100 189 38 84 42 126 70 171 233 206 18 11 111 106 130 16 254 222 87 100 250 219 160 10 152 238 42 175 98 140 79 198 74 243 26 242 241 95 157 90 172 174 100 27 24 101 170 149 68 1 248 189 91 24 198 114 6 111 33 104 251 238 173 196 98 70 182 83 164 210 172 80 255 144 233 23 244 147 171 183 19 35 116 237 185 185 222 62 41 255 37 163 109 209 103 206 23 156 33 58 110 77 9 109 92 114 3 207 132 45 135 23 206 122 4 7 179 225 68 91 96 105 125 205 185 227 155 80 254 60 137 108 136 18 88 227 131 217 50 7 6 184 156 83 178 159 89 228 1 28 190 223 132 59 172 189 30 199 13 28 3 21 7 10 38 221 108 40 182 157 174 59 213 74 141 135 233 101 234 105 
33 33 33 33 33 33 33 33 33 33 33 33 33 33 33 33 33 33 33 33 33 33 33 33 33 33 33 33 33 33 33 33 33 33 33 33 33 33 33 33 33 33 33 33 33 33 33 33 33 33 33 33 33 33 33 33 33 33 33 33 33 33 33 33 33 33 33 33 33 33 33 33 33 33 33 33 33 33 33 33 33 33 33 33 33 33 33 33 33 33 33 33 33 33 33 33 33 33 33 33 33 33 33 33 33 33 33 33 33 33 33 33 33 33 33 33 33 33 33 33 33 33 33 33 33 33 33 33 33 33 33 33 33 33 33 33 33 33 33 33 33 33 33 33 33 33 33 33 33 33 33 33 33 33 33 33 33 33 33 33 33 33 33 33 33 33 33 33 33 33 33 33 33 33 33 33 33 33 33 33 33 33 33 33 33 33 33 33 33 33 33 33 
128 168 72 132 226 116 65 127 59 77 26 61 97 159 70 7 124 177 46 50 78 219 235 162 38 247 168 142 92 146 246 91 185 189 222 155 49 158 153 107 234 178 39 203 81 235 209 76 28 126 252 106 90 231 139 254 94 52 140 185 197 2 148 127 190 241 153 111 144 51 217 122 100 128 196 181 107 149 128 135 20 125 112 236 227 250 234 66 46 245 122 115 246 14 241 52 255 10 162 143 60 251 136 160 123 77 212 229 97 84 235 243 80 91 95 52 213 73 117 3 62 238 117 179 252 229 231 123 239 137 137 170 132 17 74 126 220 157 227 62 113 206 176 192 169 16 243 126 215 104 128 149 214 117 72 82 217 47 204 200 56 85 242 59 228 187 185 193 89 156 126 201 233 173 9 146 188 124 16 20 99 16 168 57 4 239 138 220 158 213 37 213 
35 35 35 35 35 35 35 35 35 35 35 35 35 35 35 35 35 35 35 35 35 35 35 35 35 35 35 35 35 35 35 35 35 35 35 35 35 35 35 35 35 35 35 35 35 35 35 35 35 35 35 35 35 35 35 35 35 35 35 35 35 35 35 35 35 35 35 35 35 35 35 35 35 35 35 35 35 35 35 35 35 35 35 35 35 35 35 35 35 35 35 35 35 35 35 35 35 35 35 35 35 35 35 35 35 35 35 35 35 35 35 35 35 35 35 35 35 35 35 35 35 35 35 35 35 35 35 35 35 35 35 35 35 35 35 35 35 35 35 35 35 35 35 35 35 35 35 35 35 35 35 35 35 35 35 35 35 35 35 35 35 35 35 35 35 35 35 35 35 35 35 35 35 35 35 35 35 35 35 35 35 35 35 35 35 35 35 35 35 35 35 35 
42 23 143 142 209 72 206 169 99 203 241 204 120 250 94 180 118 237 199 88 124 111 145 254 94 27 90 123 112 126 80 25 20 223 166 101 166 116 14 137 63 127 85 55 121 50 234 110 158 49 197 153 159 213 151 124 112 113 247 223 110 198 247 130 37 30 102 75 145 115 211 80 241 167 6 233 88 239 214 118 159 28 142 62 112 165 57 223 22 175 62 131 118 54 132 26 83 233 100 99 220 182 50 77 93 55 182 53 165 140 42 68 39 183 1 23 92 58 245 113 232 52 244 221 232 247 247 186 225 91 156 189 18 206 10 237 132 191 161 42 203 202 236 113 130 237 135 93 166 252 206 14 175 66 235 151 57 98 208 153 188 108 86 77 185 96 186 62 158 91 103 105 165 210 90 166 191 224 3 101 220 80 115 139 145 221 161 74 63 113 226 122 
37 37 37 37 37 37 37 37 37 37 37 37 37 37 37 37 37 37 37 37 37 37 37 37 37 37 37 37 37 37 37 37 37 37 37 37 37 37 37 37 37 37 37 37 37 37 37 37 37 37 37 37 37 37 37 37 37 37 37 37 37 37 37 37 37 37 37 37 37 37 37 37 37 37 37 37 37 37 37 37 37 37 37 37 37 37 37 37 37 37 37 37 37 37 37 37 37 37 37 37 37 37 37 37 37 37 37 37 37 37 37 37 37 37 37 37 37 37 37 37 37 37 37 37 37 37 37 37 37 37 37 37 37 37 37 37 37 37 37 37 37 37 37 37 37 37 37 37 37 37 37 37 37 37 37 37 37 37 37 37 37 37 37 37 37 37 37 37 37 37 37 37 37 37 37 37 37 37 37 37 37 37 37 37 37 37 37 37 37 37 37 37 
93 57 199 22 24 1 83 53 218 57 30 127 12 119 37 74 214 167 47 179 246 33 189 8 253 222 81 187 79 51 53 43 234 123 65 129 123 19 54 86 203 83 84 214 73 248 159 31 159 205 81 149 237 142 156 106 108 108 37 58 31 217 101 9 84 165 10 79 55 63 36 2 17 246 87 89 238 246 119 141 67 72 162 49 213 189 26 65 169 190 122 199 151 222 79 106 3 215 56 58 22 91 186 38 209 18 253 191 8 117 204 74 188 237 249 145 42 20 81 210 209 202 153 231 169 104 81 43 63 9 100 212 226 31 121 179 175 119 115 182 107 190 127 166 171 248 182 212 139 7 167 219 208 191 194 248 39 146 36 102 154 7 58 252 164 178 175 83 168 34 9 19 223 8 184 10 127 110 222 10 116 5 228 196 195 38 188 106 55 95 207 81 
39 39 39 39 39 39 39 39 39 39 39 39 39 39 39 39 39 39 39 39 39 39 39 39 39 39 39 39 39 39 39 39 39 39 39 39 39 39 39 39 39 39 39 39 39 39 39 39 39 39 39 39 39 39 39 39 39 39 39 39 39 39 39 39 39 39 39 39 39 39 39 39 39 39 39 39 39 39 39 39 39 39 39 39 39 39 39 39 39 39 39 39 39 39 39 39 39 39 39 39 39 39 39 39 39 39 39 39 39 39 39 39 39 39 39 39 39 39 39 39 39 39 39 39 39 39 39 39 39 39 39 39 39 39 39 39 39 39 39 39 39 39 39 39 39 39 39 39 39 39 39 39 39 39 39 39 39 39 39 39 39 39 39 39 39 39 39 39 39 39 39 39 39 39 39 39 39 39 39 39 39 39 39 39 39 39 39 39 39 39 39 39 
102 136 77 10 185 251 93 98 157 228 116 251 107 172 6 233 26 99 242 14 103 86 209 42 250 13 147 177 108 225 2 209 232 205 90 162 72 182 131 228 27 118 96 133 34 101 111 187 71 224 72 173 182 25 86 48 164 105 224 16 74 97 96 178 173 58 211 245 239 86 89 137 75 184 15 236 156 252 39 226 92 110 15 18 6 101 193 169 205 33 57 150 130 24 199 174 81 154 163 192 111 252 73 58 52 214 38 208 210 76 50 47 185 65 191 190 37 128 230 241 161 31 7 162 182 206 80 7 231 243 70 214 111 143 16 162 228 53 241 183 255 36 229 184 227 164 245 8 37 219 120 69 122 253 230 48 75 54 181 51 168 123 136 23 137 151 57 109 203 42 36 74 204 136 2 175 45 118 54 208 208 173 148 74 43 122 248 117 47 46 39 215 
41 41 41 41 41 41 41 41 41 41 41 41 41 41 41 41 41 41 41 41 41 41 41 41 41 41 41 41 41 41 41 41 41 41 41 41 41 41 41 41 41 41 41 41 41 41 41 41 41 41 41 41 41 41 41 41 41 41 41 41 41 41 41 41 41 41 41 41 41 41 41 41 41 41 41 41 41 41 41 41 41 41 41 41 41 41 41 41 41 41 41 41 41 41 41 41 41 41 41 41 41 41 41 41 41 41 41 41 41 41 41 41 41 41 41 41 41 41 41 41 41 41 41 41 41 41 41 41 41 41 41 41 41 41 41 41 41 41 41 41 41 41 41 41 41 41 41 41 41 41 41 41 41 41 41 41 41 41 41 41 41 41 41 41 41 41 41 41 41 41 41 41 41 41 41 41 41 41 41 41 41 41 41 41 41 41 41 41 41 41 41 41 
168 174 109 176 196 165 29 15 79 65 88 27 200 216 74 116 78 127 195 31 172 87 231 86 80 96 202 127 13 113 213 52 158 66 227 99 103 255 113 181 191 201 79 8 161 152 250 111 151 190 141 194 148 243 24 228 83 225 99 222 209 56 18 112 248 244 82 222 116 194 19 51 11 98 185 172 121 180 154 143 241 166 81 133 153 104 105 108 201 203 74 154 130 92 137 250 80 218 216 195 157 107 118 39 204 47 82 196 98 235 84 83 145 36 216 43 140 65 22 85 140 95 110 141 186 247 7 138 209 223 204 237 74 66 21 149 240 102 216 82 82 171 165 226 207 252 140 218 61 161 47 72 1 156 85 58 19 91 67 228 185 16 81 3 208 101 23 64 75 111 18 156 26 182 253 104 50 10 66 237 170 112 54 42 140 10 227 158 100 38 2 30 
43 43 43 43 43 43 43 43 43 43 43 43 43 43 43 43 43 43 43 43 43 43 43 43 43 43 43 43 43 43 43 43 43 43 43 43 43 43 43 43 43 43 43 43 43 43 43 43 43 43 43 43 43 43 43 43 43 43 43 43 43 43 43 43 43 43 43 43 43 43 43 43 43 43 43 43 43 43 43 43 43 43 43 43 43 43 43 43 43 43 43 43 43 43 43 43 43 43 43 43 43 43 43 43 43 43 43 43 43 43 43 43 43 43 43 43 43 43 43 43 43 43 43 43 43 43 43 43 43 43 43 43 43 43 43 43 43 43 43 43 43 43 43 43 43 43 43 43 43 43 43 43 43 43 43 43 43 43 43 43 43 43 43 43 43 43 43 43 43 43 43 43 43 43 43 43 43 43 43 43 43 43 43 43 43 43 43 43 43 43 43 43 
180 83 159 5 55 54 195 129 164 212 156 61 10 26 165 59 35 230 41 204 214 221 118 225 230 89 254 74 253 1 230 50 210 134 54 9 59 248 10 222 77 165 154 86 190 63 145 224 165 185 45 123 150 162 219 251 122 217 69 119 89 171 168 43 176 93 179 234 213 188 72 34 224 225 246 159 33 135 254 69 191 170 63 212 203 26 207 69 242 148 60 76 63 99 245 238 64 168 216 21 100 32 181 196 128 171 99 32 178 224 100 113 11 162 70 213 59 148 154 173 40 85 120 102 55 109 211 118 149 171 10 120 74 190 60 74 233 30 105 155 254 205 139 9 238 80 93 169 228 246 86 139 202 205 113 2 185 68 119 78 111 1 198 56 62 2 129 39 32 234 65 157 55 204 37 164 28 1 77 255 119 34 139 65 110 123 66 40 190 57 244 45 
45 45 45 45 45 45 45 45 45 45 45 45 45 45 45 45 45 45 45 45 45 45 45 45 45 45 45 45 45 45 45 45 45 45 45 45 45 45 45 45 45 45 45 45 45 45 45 45 45 45 45 45 45 45 45 45 45 45 45 45 45 45 45 45 45 45 45 45 45 45 45 45 45 45 45 45 45 45 45 45 45 45 45 45 45 45 45 45 45 45 45 45 45 45 45 45 45 45 45 45 45 45 45 45 45 45 45 45 45 45 45 45 45 45 45 45 45 45 45 45 45 45 45 45 45 45 45 45 45 45 45 45 45 45 45 45 45 45 45 45 45 45 45 45 45 45 45 45 45 45 45 45 45 45 45 45 45 45 45 45 45 45 45 45 45 45 45 45 45 45 45 45 45 45 45 45 45 45 45 45 45 45 45 45 45 45 45 45 45 45 45 45 
57 58 228 245 60 101 29 218 206 220 246 5 168 154 41 196 154 117 67 17 23 77 82 132 199 19 43 6 75 32 177 3 89 149 120 20 250 20 109 72 239 99 204 152 252 244 219 23 232 157 39 254 234 247 131 49 11 173 54 212 76 231 87 165 124 206 56 245 225 165 189 208 8 137 231 132 125 194 154 101 223 64 227 201 56 229 249 66 18 175 22 94 150 108 130 145 185 185 7 154 221 195 234 101 203 209 232 72 20 2 44 242 65 142 59 120 115 179 57 133 225 79 226 119 58 227 136 115 28 14 13 249 80 118 94 27 199 197 225 218 198 13 76 134 155 6 254 141 56 55 18 26 5 115 16 190 86 151 49 241 36 188 234 115 51 72 13 249 13 237 83 82 250 30 215 21 162 85 161 217 12 51 242 143 37 3 77 250 25 252 235 61 
47 47 47 47 47 47 47 47 47 47 47 47 47 47 47 47 47 47 47 47 47 47 47 47 47 47 47 47 47 47 47 47 47 47 47 47 47 47 47 47 47 47 47 47 47 47 47 47 47 47 47 47 47 47 47 47 47 47 47 47 47 47 47 47 47 47 47 47 47 47 47 47 47 47 47 47 47 47 47 47 47 47 47 47 47 47 47 47 47 47 47 47 47 47 47 47 47 47 47 47 47 47 47 47 47 47 47 47 47 47 47 47 47 47 47 47 47 47 47 47 47 47 47 47 47 47 47 47 47 47 47 47 47 47 47 47 47 47 47 47 47 47 47 47 47 47 47 47 47 47 47 47 47 47 47 47 47 47 47 47 47 47 47 47 47 47 47 47 47 47 47 47 47 47 47 47 47 47 47 47 47 47 47 47 47 47 47 47 47 47 47 47 
57 213 47 107 156 60 227 40 168 181 121 162 82 207 54 243 37 87 204 48 9 63 62 45 65 11 39 216 7 145 148 63 229 195 41 129 126 139 168 38 64 160 72 145 112 252 4 20 210 208 194 218 15 255 135 206 10 45 166 144 190 59 78 163 125 246 37 122 129 76 31 65 108 102 81 219 226 85 110 180 164 48 143 50 174 22 255 184 66 37 199 127 222 21 35 218 138 198 211 12 145 242 203 252 215 28 215 185 112 69 110 147 243 124 196 162 17 67 217 209 231 160 81 197 52 242 32 190 184 242 73 73 100 20 197 60 47 156 116 31 97 97 177 211 220 118 117 108 184 205 62 159 236 14 228 33 127 131 94 182 244 166 254 89 185 67 20 103 223 135 133 191 232 55 18 68 172 7 176 227 211 109 3 192 249 102 96 120 104 189 46 92 
49 49 49 49 49 49 49 49 49 49 49 49 49 49 49 49 49 49 49 49 49 49 49 49 49 49 49 49 49 49 49 49 49 49 49 49 49 49 49 49 49 49 49 49 49 49 49 49 49 49 49 49 49 49 49 49 49 49 49 49 49 49 49 49 49 49 49 49 49 49 49 49 49 49 49 49 49 49 49 49 49 49 49 49 49 49 49 49 49 49 49 49 49 49 49 49 49 49 49 49 49 49 49 49 49 49 49 49 49 49 49 49 49 49 49 49 49 49 49 49 49 49 49 49 49 49 49 49 49 49 49 49 49 49 49 49 49 49 49 49 49 49 49 49 49 49 49 49 49 49 49 49 49 49 49 49 49 49 49 49 49 49 49 49 49 49 49 49 49 49 49 49 49 49 49 49 49 49 49 49 49 49 49 49 49 49 49 49 49 49 49 49 
99 171 52 155 238 71 2 77 206 135 139 182 61 156 249 104 162 41 75 245 149 204 181 14 177 21 133 25 81 178 117 179 94 168 205 203 239 206 24 61 85 162 114 145 62 234 120 96 20 195 85 40 15 10 54 192 157 186 216 237 236 204 32 201 117 236 148 227 58 171 159 15 204 17 31 137 250 151 232 141 90 61 181 231 197 106 167 225 36 128 78 143 203 109 88 64 216 235 162 19 22 65 33 225 81 190 107 203 85 83 88 46 16 13 22 84 118 188 54 26 187 131 168 135 112 128 70 72 107 104 217 1 168 121 225 121 56 203 68 140 158 155 186 173 40 207 1 29 11 181 181 70 57 221 76 168 93 145 111 71 248 200 71 33 65 168 153 247 115 92 132 17 118 189 61 157 12 189 58 22 114 238 218 42 75 38 81 167 183 192 238 47 
51 51 51 51 51 51 51 51 51 51 51 51 51 51 51 51 51 51 51 51 51 51 51 51 51 51 51 51 51 51 51 51 51 51 51 51 51 51 51 51 51 51 51 51 51 51 51 51 51 51 51 51 51 51 51 51 51 51 51 51 51 51 51 51 51 51 51 51 51 51 51 51 51 51 51 51 51 51 51 51 51 51 51 51 51 51 51 51 51 51 51 51 51 51 51 51 51 51 51 51 51 51 51 51 51 51 51 51 51 51 51 51 51 51 51 51 51 51 51 51 51 51 51 51 51 51 51 51 51 51 51 51 51 51 51 51 51 51 51 51 51 51 51 51 51 51 51 51 51 51 51 51 51 51 51 51 51 51 51 51 51 51 51 51 51 51 51 51 51 51 51 51 51 51 51 51 51 51 51 51 51 51 51 51 51 51 51 51 51 51 51 51 
8 180 79 72 92 103 191 79 194 194 222 57 127 155 85 138 88 142 31 73 252 121 115 71 158 195 238 85 3 92 4 10 16 82 209 235 57 144 58 250 82 24 51 80 178 136 89 137 149 246 210 145 111 196 88 14 7 70 225 137 33 228 146 175 182 226 154 238 114 211 104 67 107 27 146 156 34 234 38 182 225 119 199 80 186 31 93 192 227 190 73 4 162 91 50 215 61 204 69 47 31 173 113 9 199 4 165 232 109 74 30 205 192 100 30 249 130 249 185 228 183 130 103 217 220 153 48 152 101 117 198 3 161 183 12 104 58 176 207 166 121 108 116 57 208 17 177 209 137 106 182 65 107 156 153 198 53 200 222 25 188 164 28 93 218 166 68 20 86 146 58 206 254 45 134 78 61 55 158 197 32 211 133 11 112 157 208 36 102 46 61 34 
53 53 53 53 53 53 53 53 53 53 53 53 53 53 53 53 53 53 53 53 53 53 53 53 53 53 53 53 53 53 53 53 53 53 53 53 53 53 53 53 53 53 53 53 53 53 53 53 53 53 53 53 53 53 53 53 53 53 53 53 53 53 53 53 53 53 53 53 53 53 53 53 53 53 53 53 53 53 53 53 53 53 53 53 53 53 53 53 53 53 53 53 53 53 53 53 53 53 53 53 53 53 53 53 53 53 53 53 53 53 53 53 53 53 53 53 53 53 53 53 53 53 53 53 53 53 53 53 53 53 53 53 53 53 53 53 53 53 53 53 53 53 53 53 53 53 53 53 53 53 53 53 53 53 53 53 53 53 53 53 53 53 53 53 53 53 53 53 53 53 53 53 53 53 53 53 53 53 53 53 53 53 53 53 53 53 53 53 53 53 53 53 
210 215 254 44 125 66 64 82 212 248 159 82 37 164 31 224 90 188 37 248 144 170 3 255 198 83 162 44 128 222 205 209 53 203 253 49 140 188 130 96 52 160 49 88 68 79 183 157 12 219 150 27 5 152 153 203 106 59 118 234 153 194 59 205 141 56 126 153 115 255 120 166 32 169 125 99 119 52 1 2 143 22 28 19 45 52 221 151 111 211 1 8 149 59 84 162 242 209 59 228 81 50 139 112 218 8 210 82 187 82 210 74 230 238 219 20 34 57 42 16 12 42 23 32 227 234 65 85 187 250 58 12 45 68 250 7 202 205 215 133 158 170 78 133 24 42 24 184 98 65 200 236 233 94 12 76 199 77 161 131 71 90 14 115 157 9 249 230 85 80 235 114 121 57 118 144 225 141 200 194 205 144 46 182 109 185 130 53 133 162 55 75 
55 55 55 55 55 55 55 55 55 55 55 55 55 55 55 55 55 55 55 55 55 55 55 55 55 55 55 55 55 55 55 55 55 55 55 55 55 55 55 55 55 55 55 55 55 55 55 55 55 55 55 55 55 55 55 55 55 55 55 55 55 55 55 55 55 55 55 55 55 55 55 55 55 55 55 55 55 55 55 55 55 55 55 55 55 55 55 55 55 55 55 55 55 55 55 55 55 55 55 55 55 55 55 55 55 55 55 55 55 55 55 55 55 55 55 55 55 55 55 55 55 55 55 55 55 55 55 55 55 55 55 55 55 55 55 55 55 55 55 55 55 55 55 55 55 55 55 55 55 55 55 55 55 55 55 55 55 55 55 55 55 55 55 55 55 55 55 55 55 55 55 55 55 55 55 55 55 55 55 55 55 55 55 55 55 55 55 55 55 55 55 55 
251 195 190 24 75 55 253 31 6 232 145 127 161 7 15 2 148 86 68 224 101 113 23 210 169 152 134 46 58 188 121 53 254 182 203 74 236 72 104 241 49 248 112 81 127 254 209 146 211 21 114 57 6 136 138 174 159 16 220 216 75 212 140 73 138 87 146 118 31 122 230 206 241 214 31 112 84 111 2 39 132 243 222 9 250 104 54 154 119 145 114 65 101 126 10 238 84 155 227 114 148 74 64 134 32 221 245 242 77 119 152 80 106 119 88 100 222 141 253 213 158 239 22 3 109 31 241 64 58 212 178 205 30 241 210 188 79 200 46 155 190 198 234 40 188 193 11 154 205 136 238 107 246 132 110 226 34 222 34 218 178 211 168 80 69 122 139 147 193 185 173 127 254 23 38 186 215 176 211 164 56 66 143 46 197 124 143 230 90 176 193 139 
57 57 57 57 57 57 57 57 57 57 57 57 57 57 57 57 57 57 57 57 57 57 57 57 57 57 57 57 57 57 57 57 57 57 57 57 57 57 57 57 57 57 57 57 57 57 57 57 57 57 57 57 57 57 57 57 57 57 57 57 57 57 57 57 57 57 57 57 57 57 57 57 57 57 57 57 57 57 57 57 57 57 57 57 57 57 57 57 57 57 57 57 57 57 57 57 57 57 57 57 57 57 57 57 57 57 57 57 57 57 57 57 57 57 57 57 57 57 57 57 57 57 57 57 57 57 57 57 57 57 57 57 57 57 57 57 57 57 57 57 57 57 57 57 57 57 57 57 57 57 57 57 57 57 57 57 57 57 57 57 57 57 57 57 57 57 57 57 57 57 57 57 57 57 57 57 57 57 57 57 57 57 57 57 57 57 57 57 57 57 57 57 
4 232 90 199 225 229 217 35 30 134 33 155 156 71 212 242 246 39 22 173 104 164 90 45 32 232 147 248 24 211 132 27 59 221 225 155 66 58 189 95 191 222 249 218 164 77 204 26 116 98 198 219 6 32 136 165 135 154 157 158 109 160 57 39 126 153 193 191 211 127 158 18 220 23 108 255 100 183 25 215 25 94 178 158 252 58 67 131 211 95 160 191 255 216 229 125 114 39 187 196 165 89 213 1 112 65 255 83 248 151 42 17 244 219 46 240 149 112 115 231 79 146 39 78 107 139 74 220 177 132 160 213 221 244 213 204 54 84 31 173 234 199 61 94 34 107 78 182 90 64 30 168 210 68 245 188 78 190 152 255 67 183 212 159 43 42 234 223 125 136 140 231 79 73 196 239 51 19 166 140 209 67 53 35 6 169 222 83 231 245 82 169 
59 59 59 59 59 59 59 59 59 59 59 59 59 59 59 59 59 59 59 59 59 59 59 59 59 59 59 59 59 59 59 59 59 59 59 59 59 59 59 59 59 59 59 59 59 59 59 59 59 59 59 59 59 59 59 59 59 59 59 59 59 59 59 59 59 59 59 59 59 59 59 59 59 59 59 59 59 59 59 59 59 59 59 59 59 59 59 59 59 59 59 59 59 59 59 59 59 59 59 59 59 59 59 59 59 59 59 59 59 59 59 59 59 59 59 59 59 59 59 59 59 59 59 59 59 59 59 59 59 59 59 59 59 59 59 59 59 59 59 59 59 59 59 59 59 59 59 59 59 59 59 59 59 59 59 59 59 59 59 59 59 59 59 59 59 59 59 59 59 59 59 59 59 59 59 59 59 59 59 59 59 59 59 59 59 59 59 59 59 59 59 59 
44 39 72 87 207 177 54 203 57 66 50 7 138 246 245 188 136 27 199 89 220 251 124 225 37 90 53 139 207 6 52 250 171 123 81 122 171 135 70 99 72 119 232 209 109 93 13 244 120 211 205 84 79 200 181 242 161 105 125 112 110 176 107 26 170 187 19 85 193 215 55 9 79 31 89 59 123 101 175 114 184 251 198 134 195 250 120 100 99 116 212 208 163 63 105 77 121 124 33 59 210 87 67 33 244 156 219 111 128 10 225 183 5 39 61 71 33 52 170 3 167 253 210 74 187 187 22 53 182 181 111 136 139 49 41 127 76 131 110 76 140 79 3 16 244 191 86 21 242 127 23 154 252 104 99 183 162 248 235 88 173 217 96 57 138 136 55 213 11 164 160 22 114 163 164 102 98 121 249 211 119 143 109 115 247 80 43 153 72 149 113 116 
61 61 61 61 61 61 61 61 61 61 61 61 61 61 61 61 61 61 61 61 61 61 61 61 61 61 61 61 61 61 61 61 61 61 61 61 61 61 61 61 61 61 61 61 61 61 61 61 61 61 61 61 61 61 61 61 61 61 61 61 61 61 61 61 61 61 61 61 61 61 61 61 61 61 61 61 61 61 61 61 61 61 61 61 61 61 61 61 61 61 61 61 61 61 61 61 61 61 61 61 61 61 61 61 61 61 61 61 61 61 61 61 61 61 61 61 61 61 61 61 61 61 61 61 61 61 61 61 61 61 61 61 61 61 61 61 61 61 61 61 61 61 61 61 61 61 61 61 61 61 61 61 61 61 61 61 61 61 61 61 61 61 61 61 61 61 61 61 61 61 61 61 61 61 61 61 61 61 61 61 61 61 61 61 61 61 61 61 61 61 61 61 
111 208 44 248 215 226 77 97 134 237 118 248 16 26 221 240 18 215 195 136 102 176 251 220 127 165 245 70 58 102 185 168 181 101 32 140 71 236 236 76 89 225 68 104 122 161 88 139 120 154 19 221 74 141 58 72 50 47 141 108 148 71 147 73 43 51 84 113 31 64 188 119 160 128 94 26 33 53 36 24 206 54 116 152 67 173 223 116 219 109 223 238 51 242 182 93 37 10 77 67 200 136 57 104 135 150 1 39 202 36 62 152 217 50 175 28 222 143 143 58 123 238 40 45 224 222 137 5 231 85 198 48 220 254 151 100 148 24 138 94 59 72 117 147 121 37 174 87 51 189 144 173 171 56 89 139 22 97 15 124 181 212 171 17 210 194 116 229 217 126 67 147 69 55 39 189 91 212 147 13 145 163 57 187 218 145 197 111 241 211 234 166 
63 63 63 63 63 63 63 63 63 63 63 63 63 63 63 63 63 63 63 63 63 63 63 63 63 63 63 63 63 63 63 63 63 63 63 63 63 63 63 63 63 63 63 63 63 63 63 63 63 63 63 63 63 63 63 63 63 63 63 63 63 63 63 63 63 63 63 63 63 63 63 63 63 63 63 63 63 63 63 63 63 63 63 63 63 63 63 63 63 63 63 63 63 63 63 63 63 63 63 63 63 63 63 63 63 63 63 63 63 63 63 63 63 63 63 63 63 63 63 63 63 63 63 63 63 63 63 63 63 63 63 63 63 63 63 63 63 63 63 63 63 63 63 63 63 63 63 63 63 63 63 63 63 63 63 63 63 63 63 63 63 63 63 63 63 63 63 63 63 63 63 63 63 63 63 63 63 63 63 63 63 63 63 63 63 63 63 63 63 63 63 63 
