P3
64 64
255
164 152 163 86 84 191 242 253 250 122 108 83 21 20 234 227 46 82 143 32 87 9 88 40 168 6 213 209 83 131 120 118 28 154 75 238 89 62 107 83 55 214 37 75 105 143 174 150 96 61 54 182 197 141 222 109 18 51 62 227 181 181 90 208 207 36 62 40 224 168 250 151 253 31 225 103 45 15 124 141 203 49 67 144 189 160 124 207 210 185 178 136 237 139 215 188 47 22 100 15 61 221 165 59 123 7 33 168 148 28 53 222 77 246 237 137 151 105 215 105 161 10 112 143 148 72 202 66 220 173 208 152 138 244 82 6 122 114 45 15 14 97 108 90 214 90 226 109 194 186 86 100 67 69 114 86 12 187 152 231 105 104 255 114 92 81 119 86 195 35 100 80 3 207 169 217 168 11 70 107 68 27 78 134 96 63 220 107 249 116 210 98 
91 209 84 54 34 202 139 100 237 110 179 239 189 219 72 101 230 14 79 169 40 28 48 7 90 139 241 84 126 195 53 216 20 136 141 180 210 152 25 63 133 75 173 193 166 245 39 12 3 244 180 169 17 99 176 233 237 161 61 107 227 241 194 246 121 207 170 202 103 66 9 107 13 54 45 178 43 210 61 172 198 240 85 86 84 132 64 192 37 251 44 135 236 109 125 102 60 167 175 34 104 184 141 116 237 57 165 151 11 225 67 208 82 23 166 37 155 229 228 63 224 143 70 205 252 66 178 183 232 97 89 208 152 101 195 5 157 105 155 167 201 93 246 154 243 156 190 14 1 35 203 225 177 17 46 45 83 223 228 186 191 61 138 215 161 78 219 189 54 246 100 126 210 217 25 197 118 86 210 245 120 30 214 42 46 131 86 128 225 185 59 161 
117 68 120 149 17 210 82 70 200 53 68 27 15 92 223 4 49 50 248 169 79 79 82 124 209 39 124 179 224 54 211 85 248 202 234 10 156 187 79 228 240 146 254 254 109 93 129 158 142 121 198 92 71 24 88 25 62 211 75 157 136 30 114 128 231 219 137 3 150 88 230 134 105 228 4 214 66 132 243 79 125 57 171 195 80 3 91 13 85 165 170 220 66 155 219 41 118 101 44 12 60 145 18 164 118 21 249 55 25 236 133 21 37 175 87 243 177 178 1 133 214 42 97 25 196 61 192 58 33 235 196 92 125 213 255 114 106 249 168 2 101 172 22 10 92 108 124 140 157 251 18 116 37 241 12 104 173 203 33 77 55 101 168 51 58 40 36 35 160 75 36 132 246 184 13 209 164 137 221 65 132 238 52 41 95 63 16 140 138 49 216 64 
149 129 114 78 40 149 113 199 223 20 202 85 76 215 39 239 96 4 175 99 113 227 139 79 161 155 218 170 75 179 233 95 179 218 172 218 238 156 33 77 48 106 162 123 65 72 233 32 202 152 3 186 250 141 9 156 167 227 197 113 22 175 207 200 9 251 34 247 151 193 68 70 43 101 192 235 172 169 138 245 193 140 175 187 153 56 87 191 154 156 49 175 75 127 246 210 122 151 201 145 215 14 214 129 241 23 108 158 63 246 19 255 2 194 187 154 249 145 90 19 45 138 193 246 9 55 201 3 205 18 147 36 158 232 164 144 254 144 46 62 6 64 188 7 129 246 161 249 136 250 12 52 4 76 170 139 130 242 141 206 4 159 241 162 136 150 50 6 38 222 194 43 157 127 176 31 117 81 151 124 202 163 48 77 110 217 216 240 203 228 190 206 
4 48 239 11 69 33 16 106 254 210 20 28 208 195 58 196 148 80 65 94 114 112 171 224 200 3 208 19 102 14 224 105 188 208 115 1 112 3 106 238 212 252 10 164 192 194 104 84 18 40 49 132 23 91 100 94 220 179 112 67 64 81 43 252 160 30 252 16 32 230 125 115 226 134 150 34 72 125 244 90 37 38 93 59 128 192 153 93 242 136 31 50 216 200 46 247 229 43 135 132 17 4 246 114 138 12 148 81 137 136 170 173 173 7 103 173 70 127 137 56 8 39 106 95 238 23 214 212 65 93 215 208 223 78 67 232 89 86 58 97 221 227 141 11 106 244 55 47 242 191 103 121 229 80 216 211 102 46 39 39 138 254 118 232 76 56 209 36 141 11 133 234 109 18 244 86 133 43 133 247 105 107 112 205 186 199 160 159 244 71 69 253 
196 187 230 143 242 183 178 255 193 182 233 173 72 221 4 204 135 136 67 111 242 179 60 44 249 219 74 238 161 143 235 101 201 81 243 59 8 38 58 72 219 35 245 35 127 120 111 133 255 177 243 113 227 47 28 221 138 228 75 43 115 54 16 187 7 130 246 14 167 48 213 3 210 74 37 81 193 147 86 192 196 73 176 167 120 203 132 129 47 78 171 162 4 58 220 10 188 210 150 226 130 107 228 84 180 137 36 117 155 121 180 95 66 100 7 57 174 10 185 221 88 227 254 91 30 90 227 89 45 121 59 46 228 159 129 24 40 36 141 194 29 192 161 94 164 167 22 209 48 206 46 7 177 171 224 206 6 195 166 50 188 225 95 160 255 95 55 39 2 67 104 30 4 9 250 167 47 16 247 222 93 38 228 15 208 69 92 213 135 3 134 67 
99 228 98 98 194 153 8 196 219 238 97 94 247 219 132 165 106 124 131 199 161 231 85 240 44 176 198 50 50 76 117 148 176 86 117 114 110 251 54 74 234 23 39 97 241 171 6 91 39 137 34 71 112 118 55 27 166 124 76 215 200 64 235 247 150 223 105 131 219 31 204 69 53 115 165 165 30 42 255 195 178 161 137 161 150 191 187 187 187 135 19 3 198 253 249 219 220 98 95 55 255 170 250 179 29 159 88 185 201 215 124 250 120 5 156 141 68 214 200 126 93 218 128 163 215 121 126 51 90 92 233 90 134 227 13 162 3 101 219 75 187 214 69 178 91 96 63 158 55 7 155 147 224 27 54 55 147 52 233 108 143 210 197 21 181 82 55 55 54 18 129 240 103 198 162 193 165 96 222 219 230 121 111 198 147 36 125 165 87 102 18 102 
56 86 249 108 167 175 163 92 64 163 76 167 105 109 104 142 205 71 105 179 191 87 248 210 123 244 119 81 90 8 54 17 94 48 125 132 222 159 224 31 66 171 197 43 152 45 184 101 242 33 151 178 247 15 132 114 4 122 66 93 2 120 110 95 167 106 98 5 9 193 35 201 236 103 243 132 20 171 104 6 76 254 183 67 13 186 52 16 180 117 109 181 108 90 147 146 195 244 151 75 54 57 20 34 32 135 37 51 50 140 56 252 138 111 190 22 168 113 165 92 102 145 17 209 234 163 100 45 24 122 119 204 178 10 109 209 144 145 131 66 29 187 189 38 169 124 186 81 236 95 173 82 239 61 163 89 224 7 133 119 128 123 67 177 133 175 3 21 64 133 213 219 191 147 128 104 15 185 57 122 25 229 76 135 34 238 224 129 116 101 247 115 
96 58 36 228 104 165 120 39 170 205 2 105 96 1 81 237 186 137 103 82 110 50 88 15 32 56 16 19 29 7 133 124 192 41 223 167 205 214 206 119 163 207 96 3 80 176 111 137 184 86 90 165 135 177 179 39 233 194 57 133 73 190 128 136 230 95 47 51 180 252 170 88 76 137 217 27 184 73 163 112 158 252 21 164 45 71 202 149 10 4 26 209 193 153 216 167 119 7 217 171 131 3 130 78 11 91 104 194 35 11 50 64 134 70 228 50 141 174 199 22 177 224 102 241 249 62 24 239 195 113 26 70 115 155 147 253 118 122 191 152 4 113 88 137 54 60 187 66 105 2 87 154 97 60 139 90 248 163 201 188 20 226 129 6 253 148 130 115 14 66 138 18 50 225 26 103 156 84 169 6 85 127 31 182 59 41 143 51 203 215 238 94 
186 112 227 183 131 228 169 144 165 51 33 214 21 59 62 176 14 102 53 99 228 83 152 31 124 39 209 198 254 191 164 56 174 7 110 49 234 23 65 144 73 97 229 220 27 35 13 41 8 65 11 108 20 162 10 15 72 218 84 197 154 247 124 199 125 233 120 231 127 56 246 72 24 219 36 51 126 48 218 133 240 228 240 4 6 250 18 204 212 101 146 237 220 14 53 216 119 172 191 245 99 181 188 122 145 224 44 142 143 6 19 127 105 4 2 237 125 19 186 81 247 76 190 83 216 242 43 79 30 106 196 128 158 128 249 47 223 38 60 238 170 79 109 20 209 111 1 78 1 58 30 119 133 219 201 221 77 116 44 106 221 111 105 123 111 99 42 205 8 101 187 49 51 41 195 4 23 68 81 23 125 111 14 130 201 214 95 23 201 10 128 38 
121 233 161 103 203 74 52 82 46 111 130 97 23 197 100 45 9 53 194 133 163 79 7 108 38 101 130 110 111 130 148 103 234 180 77 181 253 255 134 170 110 135 11 132 76 238 48 84 35 114 217 197 192 95 176 101 196 178 211 178 52 230 152 30 154 228 82 151 227 87 65 209 221 203 212 42 185 132 125 219 117 213 32 180 53 207 26 120 1 108 42 52 209 193 208 107 37 161 129 8 247 65 88 213 12 45 126 68 176 250 31 37 208 189 216 132 141 113 251 13 92 37 65 45 101 144 151 137 177 151 16 168 216 104 252 227 20 122 40 195 244 197 103 68 131 63 199 143 48 194 155 11 102 91 56 202 235 78 210 28 229 225 195 189 200 64 32 219 57 71 30 45 140 132 112 15 67 55 29 241 120 55 251 221 146 51 167 252 1 248 24 229 
90 90 34 34 25 65 125 82 8 26 253 147 158 110 33 96 36 61 81 28 115 203 248 132 254 32 128 126 24 23 99 113 240 132 19 9 196 15 90 203 40 88 221 197 69 253 164 231 185 116 3 172 64 123 48 189 154 48 59 49 197 157 162 181 160 52 190 227 66 151 175 105 110 12 174 178 10 82 26 194 70 28 110 133 22 30 66 175 204 124 224 145 152 2 71 56 180 132 27 245 27 73 221 137 85 139 186 221 93 211 159 34 111 141 166 132 42 103 179 245 226 19 6 249 147 76 49 71 207 202 60 106 147 152 114 231 163 44 196 127 127 226 160 237 238 70 240 151 172 35 140 14 53 146 7 199 93 182 141 172 255 72 149 146 224 7 248 131 50 60 2 176 31 161 29 140 102 141 36 145 175 47 158 100 64 36 170 157 217 56 200 216 
254 93 234 222 99 226 224 20 31 97 68 188 129 96 199 230 108 234 119 155 153 148 126 216 183 40 244 16 222 188 232 221 152 82 59 250 52 28 142 209 251 209 13 125 176 212 226 29 62 217 183 214 109 53 47 164 219 35 179 186 95 27 23 118 108 208 240 32 235 126 240 103 79 253 227 254 81 69 27 142 30 81 228 11 5 19 174 224 180 224 26 146 251 175 9 230 127 248 6 234 118 246 81 196 115 179 66 195 247 93 208 22 45 180 159 50 70 204 145 250 172 170 12 39 216 20 14 87 139 19 65 1 136 17 68 122 195 134 188 187 98 141 80 14 65 110 63 135 58 79 1 101 120 12 140 80 32 25 39 42 170 103 43 178 247 237 44 186 242 232 244 211 117 195 225 53 176 159 59 233 238 59 206 229 198 90 54 101 241 92 142 155 
66 184 204 57 38 248 115 151 96 230 107 84 42 203 136 217 106 67 195 215 125 17 189 67 106 114 167 218 205 54 244 142 109 193 71 18 185 185 169 152 31 147 235 72 94 242 34 71 53 100 158 50 116 218 243 93 76 27 182 152 80 170 165 60 107 235 205 163 36 118 59 67 9 165 138 229 152 43 44 76 14 201 125 1 35 113 220 110 11 146 133 217 61 43 21 167 149 97 75 185 214 5 251 94 170 5 194 193 175 238 13 188 55 10 189 90 249 25 71 4 171 76 220 231 245 112 14 138 209 88 67 39 220 189 5 134 194 198 71 113 52 210 172 234 91 232 195 84 2 137 87 172 212 178 19 73 35 32 211 115 120 149 153 84 83 29 89 148 227 31 5 150 112 48 128 203 25 67 31 153 204 245 69 32 39 87 105 73 118 187 59 109 
80 84 64 162 112 24 181 210 54 185 105 38 105 232 240 1 171 15 153 246 131 93 22 170 179 126 114 168 184 173 149 9 1 84 42 112 235 223 67 160 24 43 197 128 19 181 128 61 68 152 51 198 244 73 112 39 70 98 207 254 15 227 134 15 182 175 253 161 142 191 66 38 233 7 37 124 188 165 184 127 61 235 69 177 179 53 215 120 150 38 245 164 9 123 50 191 170 174 223 183 110 33 220 87 167 2 82 99 38 11 225 225 117 165 146 167 217 106 158 238 143 148 18 24 142 67 86 56 113 53 239 222 86 203 180 124 76 7 94 113 144 190 83 132 99 100 170 188 205 72 170 220 219 60 243 106 253 73 33 110 125 16 76 82 91 1 205 166 134 43 151 149 232 105 25 203 204 66 135 154 137 176 118 228 235 105 205 233 49 237 87 173 
253 35 127 215 162 76 125 40 246 147 188 94 251 84 41 200 149 175 225 157 223 214 129 202 63 78 51 238 187 138 155 184 172 153 15 78 101 11 244 91 158 48 184 153 3 225 224 23 16 193 179 238 151 53 57 85 2 107 67 188 244 94 243 32 246 2 236 218 140 96 53 42 15 109 194 17 205 35 39 220 227 90 75 123 14 131 207 15 109 146 75 225 239 189 1 101 63 109 64 202 204 243 243 91 96 53 107 172 87 18 9 59 107 83 53 120 85 131 6 193 148 207 162 3 141 35 104 203 143 39 149 218 153 8 180 121 60 32 37 19 176 45 204 154 254 1 18 210 3 150 148 151 102 181 153 242 215 128 61 229 38 209 64 191 216 243 56 147 146 92 37 66 9 240 219 134 112 108 89 242 3 236 137 231 161 161 89 248 34 149 93 71 
102 156 6 189 16 188 207 161 152 244 99 160 100 189 38 84 42 126 70 171 233 206 18 11 111 106 130 16 254 222 87 100 250 219 160 10 152 238 42 175 98 140 79 198 74 243 26 242 241 95 157 90 172 174 100 27 24 101 170 149 68 1 248 189 91 24 198 114 6 111 33 104 251 238 173 196 98 70 182 83 164 210 172 80 255 144 233 23 244 147 171 183 19 35 116 237 185 185 222 62 41 255 37 163 109 209 103 206 23 156 33 58 110 77 9 109 92 114 3 207 132 45 135 23 206 122 4 7 179 225 68 91 96 105 125 205 185 227 155 80 254 60 137 108 136 18 88 227 131 217 50 7 6 184 156 83 178 159 89 228 1 28 190 223 132 59 172 189 30 199 13 28 3 21 7 10 38 221 108 40 182 157 174 59 213 74 141 135 233 101 234 105 
128 168 72 132 226 116 65 127 59 77 26 61 97 159 70 7 124 177 46 50 78 219 235 162 38 247 168 142 92 146 246 91 185 189 222 155 49 158 153 107 234 178 39 203 81 235 209 76 28 126 252 106 90 231 139 254 94 52 140 185 197 2 148 127 190 241 153 111 144 51 217 122 100 128 196 181 107 149 128 135 20 125 112 236 227 250 234 66 46 245 122 115 246 14 241 52 255 10 162 143 60 251 136 160 123 77 212 229 97 84 235 243 80 91 95 52 213 73 117 3 62 238 117 179 252 229 231 123 239 137 137 170 132 17 74 126 220 157 227 62 113 206 176 192 169 16 243 126 215 104 128 149 214 117 72 82 217 47 204 200 56 85 242 59 228 187 185 193 89 156 126 201 233 173 9 146 188 124 16 20 99 16 168 57 4 239 138 220 158 213 37 213 
42 23 143 142 209 72 206 169 99 203 241 204 120 250 94 180 118 237 199 88 124 111 145 254 94 27 90 123 112 126 80 25 20 223 166 101 166 116 14 137 63 127 85 55 121 50 234 110 158 49 197 153 159 213 151 124 112 113 247 223 110 198 247 130 37 30 102 75 145 115 211 80 241 167 6 233 88 239 214 118 159 28 142 62 112 165 57 223 22 175 62 131 118 54 132 26 83 233 100 99 220 182 50 77 93 55 182 53 165 140 42 68 39 183 1 23 92 58 245 113 232 52 244 221 232 247 247 186 225 91 156 189 18 206 10 237 132 191 161 42 203 202 236 113 130 237 135 93 166 252 206 14 175 66 235 151 57 98 208 153 188 108 86 77 185 96 186 62 158 91 103 105 165 210 90 166 191 224 3 101 220 80 115 139 145 221 161 74 63 113 226 122 
93 57 199 22 24 1 83 53 218 57 30 127 12 119 37 74 214 167 47 179 246 33 189 8 253 222 81 187 79 51 53 43 234 123 65 129 123 19 54 86 203 83 84 214 73 248 159 31 159 205 81 149 237 142 156 106 108 108 37 58 31 217 101 9 84 165 10 79 55 63 36 2 17 246 87 89 238 246 119 141 67 72 162 49 213 189 26 65 169 190 122 199 151 222 79 106 3 215 56 58 22 91 186 38 209 18 253 191 8 117 204 74 188 237 249 145 42 20 81 210 209 202 153 231 169 104 81 43 63 9 100 212 226 31 121 179 175 119 115 182 107 190 127 166 171 248 182 212 139 7 167 219 208 191 194 248 39 146 36 102 154 7 58 252 164 178 175 83 168 34 9 19 223 8 184 10 127 110 222 10 116 5 228 196 195 38 188 106 55 95 207 81 
102 136 77 10 185 251 93 98 157 228 116 251 107 172 6 233 26 99 242 14 103 86 209 42 250 13 147 177 108 225 2 209 232 205 90 162 72 182 131 228 27 118 96 133 34 101 111 187 71 224 72 173 182 25 86 48 164 105 224 16 74 97 96 178 173 58 211 245 239 86 89 137 75 184 15 236 156 252 39 226 92 110 15 18 6 101 193 169 205 33 57 150 130 24 199 174 81 154 163 192 111 252 73 58 52 214 38 208 210 76 50 47 185 65 191 190 37 128 230 241 161 31 7 162 182 206 80 7 231 243 70 214 111 143 16 162 228 53 241 183 255 36 229 184 227 164 245 8 37 219 120 69 122 253 230 48 75 54 181 51 168 123 136 23 137 151 57 109 203 42 36 74 204 136 2 175 45 118 54 208 208 173 148 74 43 122 248 117 47 46 39 215 
168 174 109 176 196 165 29 15 79 65 88 27 200 216 74 116 78 127 195 31 172 87 231 86 80 96 202 127 13 113 213 52 158 66 227 99 103 255 113 181 191 201 79 8 161 152 250 111 151 190 141 194 148 243 24 228 83 225 99 222 209 56 18 112 248 244 82 222 116 194 19 51 11 98 185 172 121 180 154 143 241 166 81 133 153 104 105 108 201 203 74 154 130 92 137 250 80 218 216 195 157 107 118 39 204 47 82 196 98 235 84 83 145 36 216 43 140 65 22 85 140 95 110 141 186 247 7 138 209 223 204 237 74 66 21 149 240 102 216 82 82 171 165 226 207 252 140 218 61 161 47 72 1 156 85 58 19 91 67 228 185 16 81 3 208 101 23 64 75 111 18 156 26 182 253 104 50 10 66 237 170 112 54 42 140 10 227 158 100 38 2 30 
180 83 159 5 55 54 195 129 164 212 156 61 10 26 165 59 35 230 41 204 214 221 118 225 230 89 254 74 253 1 230 50 210 134 54 9 59 248 10 222 77 165 154 86 190 63 145 224 165 185 45 123 150 162 219 251 122 217 69 119 89 171 168 43 176 93 179 234 213 188 72 34 224 225 246 159 33 135 254 69 191 170 63 212 203 26 207 69 242 148 60 76 63 99 245 238 64 168 216 21 100 32 181 196 128 171 99 32 178 224 100 113 11 162 70 213 59 148 154 173 40 85 120 102 55 109 211 118 149 171 10 120 74 190 60 74 233 30 105 155 254 205 139 9 238 80 93 169 228 246 86 139 202 205 113 2 185 68 119 78 111 1 198 56 62 2 129 39 32 234 65 157 55 204 37 164 28 1 77 255 119 34 139 65 110 123 66 40 190 57 244 45 
57 58 228 245 60 101 29 218 206 220 246 5 168 154 41 196 154 117 67 17 23 77 82 132 199 19 43 6 75 32 177 3 89 149 120 20 250 20 109 72 239 99 204 152 252 244 219 23 232 157 39 254 234 247 131 49 11 173 54 212 76 231 87 165 124 206 56 245 225 165 189 208 8 137 231 132 125 194 154 101 223 64 227 201 56 229 249 66 18 175 22 94 150 108 130 145 185 185 7 154 221 195 234 101 203 209 232 72 20 2 44 242 65 142 59 120 115 179 57 133 225 79 226 119 58 227 136 115 28 14 13 249 80 118 94 27 199 197 225 218 198 13 76 134 155 6 254 141 56 55 18 26 5 115 16 190 86 151 49 241 36 188 234 115 51 72 13 249 13 237 83 82 250 30 215 21 162 85 161 217 12 51 242 143 37 3 77 250 25 252 235 61 
57 213 47 107 156 60 227 40 168 181 121 162 82 207 54 243 37 87 204 48 9 63 62 45 65 11 39 216 7 145 148 63 229 195 41 129 126 139 168 38 64 160 72 145 112 252 4 20 210 208 194 218 15 255 135 206 10 45 166 144 190 59 78 163 125 246 37 122 129 76 31 65 108 102 81 219 226 85 110 180 164 48 143 50 174 22 255 184 66 37 199 127 222 21 35 218 138 198 211 12 145 242 203 252 215 28 215 185 112 69 110 147 243 124 196 162 17 67 217 209 231 160 81 197 52 242 32 190 184 242 73 73 100 20 197 60 47 156 116 31 97 97 177 211 220 118 117 108 184 205 62 159 236 14 228 33 127 131 94 182 244 166 254 89 185 67 20 103 223 135 133 191 232 55 18 68 172 7 176 227 211 109 3 192 249 102 96 120 104 189 46 92 
99 171 52 155 238 71 2 77 206 135 139 182 61 156 249 104 162 41 75 245 149 204 181 14 177 21 133 25 81 178 117 179 94 168 205 203 239 206 24 61 85 162 114 145 62 234 120 96 20 195 85 40 15 10 54 192 157 186 216 237 236 204 32 201 117 236 148 227 58 171 159 15 204 17 31 137 250 151 232 141 90 61 181 231 197 106 167 225 36 128 78 143 203 109 88 64 216 235 162 19 22 65 33 225 81 190 107 203 85 83 88 46 16 13 22 84 118 188 54 26 187 131 168 135 112 128 70 72 107 104 217 1 168 121 225 121 56 203 68 140 158 155 186 173 40 207 1 29 11 181 181 70 57 221 76 168 93 145 111 71 248 200 71 33 65 168 153 247 115 92 132 17 118 189 61 157 12 189 58 22 114 238 218 42 75 38 81 167 183 192 238 47 
8 180 79 72 92 103 191 79 194 194 222 57 127 155 85 138 88 142 31 73 252 121 115 71 158 195 238 85 3 92 4 10 16 82 209 235 57 144 58 250 82 24 51 80 178 136 89 137 149 246 210 145 111 196 88 14 7 70 225 137 33 228 146 175 182 226 154 238 114 211 104 67 107 27 146 156 34 234 38 182 225 119 199 80 186 31 93 192 227 190 73 4 162 91 50 215 61 204 69 47 31 173 113 9 199 4 165 232 109 74 30 205 192 100 30 249 130 249 185 228 183 130 103 217 220 153 48 152 101 117 198 3 161 183 12 104 58 176 207 166 121 108 116 57 208 17 177 209 137 106 182 65 107 156 153 198 53 200 222 25 188 164 28 93 218 166 68 20 86 146 58 206 254 45 134 78 61 55 158 197 32 211 133 11 112 157 208 36 102 46 61 34 
210 215 254 44 125 66 64 82 212 248 159 82 37 164 31 224 90 188 37 248 144 170 3 255 198 83 162 44 128 222 205 209 53 203 253 49 140 188 130 96 52 160 49 88 68 79 183 157 12 219 150 27 5 152 153 203 106 59 118 234 153 194 59 205 141 56 126 153 115 255 120 166 32 169 125 99 119 52 1 2 143 22 28 19 45 52 221 151 111 211 1 8 149 59 84 162 242 209 59 228 81 50 139 112 218 8 210 82 187 82 210 74 230 238 219 20 34 57 42 16 12 42 23 32 227 234 65 85 187 250 58 12 45 68 250 7 202 205 215 133 158 170 78 133 24 42 24 184 98 65 200 236 233 94 12 76 199 77 161 131 71 90 14 115 157 9 249 230 85 80 235 114 121 57 118 144 225 141 200 194 205 144 46 182 109 185 130 53 133 162 55 75 
251 195 190 24 75 55 253 31 6 232 145 127 161 7 15 2 148 86 68 224 101 113 23 210 169 152 134 46 58 188 121 53 254 182 203 74 236 72 104 241 49 248 112 81 127 254 209 146 211 21 114 57 6 136 138 174 159 16 220 216 75 212 140 73 138 87 146 118 31 122 230 206 241 214 31 112 84 111 2 39 132 243 222 9 250 104 54 154 119 145 114 65 101 126 10 238 84 155 227 114 148 74 64 134 32 221 245 242 77 119 152 80 106 119 88 100 222 141 253 213 158 239 22 3 109 31 241 64 58 212 178 205 30 241 210 188 79 200 46 155 190 198 234 40 188 193 11 154 205 136 238 107 246 132 110 226 34 222 34 218 178 211 168 80 69 122 139 147 193 185 173 127 254 23 38 186 215 176 211 164 56 66 143 46 197 124 143 230 90 176 193 139 
4 232 90 199 225 229 217 35 30 134 33 155 156 71 212 242 246 39 22 173 104 164 90 45 32 232 147 248 24 211 132 27 59 221 225 155 66 58 189 95 191 222 249 218 164 77 204 26 116 98 198 219 6 32 136 165 135 154 157 158 109 160 57 39 126 153 193 191 211 127 158 18 220 23 108 255 100 183 25 215 25 94 178 158 252 58 67 131 211 95 160 191 255 216 229 125 114 39 187 196 165 89 213 1 112 65 255 83 248 151 42 17 244 219 46 240 149 112 115 231 79 146 39 78 107 139 74 220 177 132 160 213 221 244 213 204 54 84 31 173 234 199 61 94 34 107 78 182 90 64 30 168 210 68 245 188 78 190 152 255 67 183 212 159 43 42 234 223 125 136 140 231 79 73 196 239 51 19 166 140 209 67 53 35 6 169 222 83 231 245 82 169 
44 39 72 87 207 177 54 203 57 66 50 7 138 246 245 188 136 27 199 89 220 251 124 225 37 90 53 139 207 6 52 250 171 123 81 122 171 135 70 99 72 119 232 209 109 93 13 244 120 211 205 84 79 200 181 242 161 105 125 112 110 176 107 26 170 187 19 85 193 215 55 9 79 31 89 59 123 101 175 114 184 251 198 134 195 250 120 100 99 116 212 208 163 63 105 77 121 124 33 59 210 87 67 33 244 156 219 111 128 10 225 183 5 39 61 71 33 52 170 3 167 253 210 74 187 187 22 53 182 181 111 136 139 49 41 127 76 131 110 76 140 79 3 16 244 191 86 21 242 127 23 154 252 104 99 183 162 248 235 88 173 217 96 57 138 136 55 213 11 164 160 22 114 163 164 102 98 121 249 211 119 143 109 115 247 80 43 153 72 149 113 116 
111 208 44 248 215 226 77 97 134 237 118 248 16 26 221 240 18 215 195 136 102 176 251 220 127 165 245 70 58 102 185 168 181 101 32 140 71 236 236 76 89 225 68 104 122 161 88 139 120 154 19 221 74 141 58 72 50 47 141 108 148 71 147 73 43 51 84 113 31 64 188 119 160 128 94 26 33 53 36 24 206 54 116 152 67 173 223 116 219 109 223 238 51 242 182 93 37 10 77 67 200 136 57 104 135 150 1 39 202 36 62 152 217 50 175 28 222 143 143 58 123 238 40 45 224 222 137 5 231 85 198 48 220 254 151 100 148 24 138 94 59 72 117 147 121 37 174 87 51 189 144 173 171 56 89 139 22 97 15 124 181 212 171 17 210 194 116 229 217 126 67 147 69 55 39 189 91 212 147 13 145 163 57 187 218 145 197 111 241 211 234 166 
39 150 55 120 215 42 93 176 167 31 194 235 86 232 40 48 61 187 188 77 94 244 9 183 134 77 38 246 33 16 29 198 37 83 190 251 124 27 43 163 185 237 14 142 85 54 61 145 240 248 222 205 237 102 132 242 50 169 232 209 184 132 152 93 214 86 88 210 239 3 117 168 239 130 181 68 183 242 85 39 234 178 243 87 151 246 73 200 159 177 154 215 53 50 52 139 7 11 93 245 140 81 30 123 210 210 63 10 196 147 175 47 196 35 133 91 25 78 35 56 126 188 15 50 109 193 188 115 75 152 232 215 232 6 209 59 87 16 68 155 34 242 201 229 21 205 64 173 27 226 228 152 158 242 74 139 51 6 253 252 30 101 211 6 106 37 64 193 179 3 92 213 245 164 58 137 113 249 54 140 219 26 163 248 139 108 131 61 114 1 185 143 
101 12 20 207 48 211 16 227 213 234 56 202 142 113 211 126 106 136 137 69 34 172 62 44 24 192 232 137 64 161 151 165 172 43 243 220 253 3 191 210 108 246 29 121 230 111 246 81 246 128 21 24 44 82 195 67 146 171 76 209 76 98 245 247 140 232 83 9 234 145 219 213 7 119 78 237 229 69 62 91 196 209 242 239 36 181 177 53 96 252 133 43 222 123 161 106 99 244 242 205 133 205 162 140 195 240 248 40 53 181 130 120 134 116 230 41 168 151 93 8 20 98 177 241 220 83 218 190 71 204 139 75 25 173 86 219 29 78 3 208 3 5 72 137 120 173 177 160 68 142 39 214 239 216 199 75 43 34 9 240 237 20 59 7 192 17 97 220 94 227 44 224 231 115 232 222 159 25 126 226 166 165 57 21 125 127 95 39 160 231 23 142 
250 208 20 58 224 116 149 190 214 192 158 189 178 134 156 81 158 153 178 196 62 234 216 58 233 183 96 137 158 245 150 24 198 41 208 38 29 101 227 242 164 1 176 86 6 203 38 164 100 215 231 162 66 63 219 43 117 187 51 146 176 201 169 245 113 121 28 141 93 126 128 1 127 175 213 132 122 250 167 221 210 14 254 147 77 90 189 65 21 239 211 196 56 251 186 169 117 213 181 81 210 53 82 208 99 166 212 220 161 123 58 242 9 183 133 212 17 193 21 37 176 231 233 104 227 163 144 215 247 69 40 73 249 248 26 92 31 237 184 191 231 113 177 239 40 181 195 57 118 88 93 38 63 197 13 161 231 156 247 94 97 159 167 90 151 192 53 181 173 108 243 20 220 36 4 5 216 70 188 78 157 25 243 92 94 127 124 69 28 116 163 251 
19 74 85 41 137 9 94 181 117 81 200 208 117 75 212 204 145 16 154 173 41 141 136 6 12 5 74 166 120 108 161 138 181 117 178 189 253 16 114 114 224 59 66 212 5 150 160 149 165 58 194 77 70 74 82 209 205 28 119 69 135 152 78 188 140 128 121 137 15 235 250 238 165 188 194 169 209 226 190 245 155 128 67 225 73 20 178 23 47 168 218 54 191 41 241 76 168 106 212 182 212 79 37 121 138 102 162 91 199 96 80 99 95 18 195 39 38 244 61 211 28 151 9 219 63 121 39 230 99 122 28 55 200 191 176 82 165 82 44 108 49 124 206 143 13 17 181 177 5 114 133 33 136 13 251 198 6 161 44 104 27 198 158 99 134 205 52 43 158 96 22 206 91 228 220 103 116 18 25 121 3 29 153 138 168 20 207 173 52 250 21 78 
64 51 48 197 255 100 111 30 195 133 235 30 232 72 4 92 216 28 84 218 183 108 227 96 254 50 13 50 44 161 255 107 211 47 176 82 18 158 111 212 162 218 113 10 34 117 229 121 16 57 210 199 37 181 166 35 102 178 85 145 210 84 123 37 2 170 119 20 73 229 103 106 63 216 116 223 204 89 88 91 17 42 161 53 94 71 88 195 121 172 211 75 127 206 112 255 120 102 19 64 202 249 170 10 209 157 232 29 245 192 119 6 233 25 186 199 95 18 138 87 61 221 162 59 171 145 58 162 246 204 226 192 69 12 201 22 168 50 177 29 241 167 161 90 63 91 33 30 235 43 116 167 8 22 225 50 166 155 211 28 230 53 220 43 191 165 191 230 214 239 3 71 150 36 161 213 126 193 114 233 107 229 144 114 123 241 35 160 140 118 188 241 
170 152 28 233 188 90 207 19 73 82 89 222 117 121 51 114 59 164 91 165 138 107 151 132 92 57 36 103 174 223 88 216 246 115 193 179 204 16 197 21 97 157 114 213 23 165 72 208 200 34 244 209 140 11 85 103 68 121 205 113 215 37 73 206 23 137 129 98 153 197 245 121 225 104 79 247 140 22 71 84 182 60 38 194 197 249 41 9 114 246 122 74 27 66 24 50 75 24 19 227 220 9 92 61 112 42 180 251 190 250 206 244 181 115 182 123 109 94 3 94 84 251 167 238 62 62 159 136 85 177 234 176 185 197 109 41 111 33 163 172 27 241 160 80 227 213 74 80 52 76 46 135 72 212 244 5 146 147 12 102 69 117 150 125 185 3 38 40 35 72 84 188 57 115 139 29 73 212 235 124 33 25 130 231 109 246 107 126 137 245 227 77 
233 248 202 162 122 111 74 28 182 157 216 111 143 226 11 215 183 245 210 87 142 212 62 122 202 40 247 210 29 90 32 6 83 105 39 204 215 112 232 13 140 64 123 28 34 133 114 88 123 69 174 136 152 235 2 98 146 120 52 174 209 210 51 163 186 90 112 17 73 215 30 213 150 152 112 183 157 225 143 151 38 61 31 189 168 159 158 58 23 82 104 103 163 154 11 94 115 249 237 60 208 11 17 102 35 255 156 191 224 43 86 134 104 243 194 143 146 97 200 40 50 175 142 212 201 152 50 60 145 32 119 97 169 7 70 75 6 98 10 102 12 222 235 242 209 173 129 226 141 74 10 190 248 152 147 193 48 68 125 65 226 115 33 12 249 103 86 126 72 96 227 83 189 78 70 15 251 198 240 8 143 122 198 8 18 89 200 192 28 196 1 254 
183 161 10 176 8 95 46 206 62 145 33 123 222 102 137 89 45 248 97 187 114 166 194 131 126 11 195 153 78 67 23 5 227 159 180 106 126 98 56 187 242 89 181 80 62 62 169 106 55 137 165 168 174 230 171 44 112 237 196 190 48 91 194 147 249 246 252 119 215 180 178 201 140 103 152 201 165 192 52 91 200 88 130 118 62 45 161 46 26 229 235 201 64 45 92 184 162 88 48 121 139 97 193 23 199 217 224 235 153 147 197 98 234 72 215 167 116 248 212 14 93 63 214 156 235 50 211 13 9 130 134 148 226 198 42 170 159 10 21 184 156 218 26 6 34 112 173 21 231 1 34 68 191 119 95 42 168 51 54 49 180 59 68 151 2 109 192 32 119 84 215 146 46 112 152 206 96 196 227 71 68 132 139 3 251 105 171 163 155 225 83 207 
28 150 229 156 4 165 188 249 248 19 139 166 131 35 116 98 230 87 168 43 219 178 172 86 155 88 248 54 184 203 132 211 97 105 239 227 14 43 220 134 188 104 171 190 10 31 32 112 245 72 154 80 249 197 165 20 156 29 74 84 231 205 167 200 182 150 171 195 64 136 200 251 111 115 186 120 18 217 231 7 33 1 213 154 70 122 173 225 22 118 54 253 195 92 69 121 113 239 187 176 246 4 43 101 245 228 221 7 62 68 140 221 69 97 246 138 90 36 234 112 25 159 236 219 250 49 211 107 159 15 154 150 145 69 250 134 41 87 141 229 155 152 67 95 249 57 104 210 219 209 66 244 113 173 79 234 93 162 213 252 176 111 146 65 179 12 70 92 226 210 192 125 107 3 91 227 187 66 181 150 19 119 138 131 163 217 110 1 123 67 124 170 
49 141 106 100 152 175 63 249 2 254 118 235 2 80 78 188 145 3 82 164 248 92 39 156 180 20 28 174 213 151 88 7 36 65 233 59 239 40 53 112 38 42 91 166 122 40 225 138 43 179 46 162 15 212 189 66 103 216 239 61 111 198 194 18 7 171 204 117 82 128 101 246 41 63 157 34 103 126 172 17 176 89 178 62 45 112 127 20 72 110 80 55 52 145 199 185 60 19 174 141 146 19 131 59 208 159 92 55 157 8 71 77 224 249 139 140 232 10 159 48 247 238 229 170 254 45 227 58 63 17 70 81 162 73 139 114 103 230 169 4 110 239 208 205 104 218 89 80 99 248 255 217 102 100 132 101 144 230 30 207 246 227 32 152 44 42 10 18 143 178 149 252 34 101 201 137 190 162 89 33 154 215 122 127 59 253 227 203 227 129 154 217 
100 57 113 15 225 249 32 112 172 180 236 77 152 53 85 213 214 173 118 239 132 239 111 191 108 209 10 79 82 35 167 181 91 151 67 187 144 99 43 187 150 150 8 174 203 93 3 33 10 120 17 14 103 254 76 210 207 85 160 34 119 198 86 81 93 153 12 237 123 181 40 144 76 48 189 150 140 192 182 21 56 70 161 31 68 236 112 20 65 144 180 183 86 137 135 179 161 146 32 28 72 71 44 19 245 232 168 1 168 94 149 96 164 54 253 103 162 109 122 98 252 173 26 210 55 32 133 215 178 36 115 121 233 158 139 223 6 51 95 46 16 243 13 51 169 10 154 75 245 147 172 114 65 69 68 246 101 72 77 150 107 191 15 211 220 25 178 226 75 145 143 217 132 155 13 45 164 38 246 25 56 163 138 120 103 77 237 203 148 59 97 126 
121 238 82 86 7 131 183 208 20 70 170 152 96 54 68 4 218 59 155 18 93 38 10 195 114 246 15 7 176 238 4 42 221 85 254 99 216 181 52 107 122 93 130 217 18 198 92 235 128 246 252 220 155 133 31 14 251 45 147 171 28 22 84 120 107 82 218 194 134 14 45 127 233 175 215 250 244 178 229 116 169 98 207 195 102 237 208 97 27 226 140 181 248 223 45 226 177 7 36 182 148 80 181 252 126 140 247 241 63 92 101 103 61 179 42 163 161 122 4 59 219 15 239 83 110 28 180 31 161 215 84 180 167 9 177 37 21 168 23 210 131 250 57 192 174 225 99 79 91 229 9 182 244 247 9 225 146 189 255 178 148 210 103 186 91 151 223 238 190 117 192 65 111 120 128 156 89 226 106 52 72 114 233 187 105 113 156 122 173 27 45 193 
108 19 123 198 169 90 180 103 78 116 39 189 107 167 216 196 9 67 247 80 180 96 138 157 80 38 23 253 191 194 190 44 212 57 241 125 19 38 99 96 25 10 156 132 176 117 72 184 183 190 136 234 157 18 135 236 183 158 233 118 96 39 161 53 223 19 49 241 56 20 208 80 29 236 83 76 224 26 131 151 87 11 1 243 156 136 96 83 38 73 72 5 239 105 184 206 123 105 191 50 124 15 1 24 250 84 99 218 109 229 240 196 112 241 183 12 121 150 221 30 95 164 34 78 13 90 28 7 194 90 56 62 231 57 212 226 140 55 60 120 155 45 60 11 157 115 149 149 9 241 178 103 150 83 52 34 172 79 41 110 40 96 43 16 24 254 241 163 53 172 28 80 216 214 90 244 73 111 137 209 96 186 183 117 14 235 151 57 185 191 167 225 
158 81 240 182 80 97 216 4 13 115 83 101 74 45 89 18 27 98 98 249 28 26 111 168 5 6 225 189 68 8 30 225 88 14 23 39 237 239 43 122 98 252 222 171 168 182 61 66 24 158 60 179 183 170 91 59 47 60 248 114 67 22 210 27 163 233 65 144 216 234 137 58 103 103 101 142 157 161 208 52 63 12 230 246 53 66 176 99 252 168 212 191 62 166 217 96 15 26 111 230 132 248 160 234 222 5 120 123 165 72 47 99 210 21 216 7 213 137 105 82 176 188 17 237 226 233 204 240 130 60 87 133 52 246 111 18 250 103 13 31 174 59 1 1 206 217 7 36 225 239 117 145 171 133 254 13 237 202 125 238 133 211 116 184 201 98 74 67 200 86 224 246 16 224 246 221 57 124 128 153 107 244 170 150 248 168 162 101 241 31 84 119 
241 71 47 58 40 247 124 240 204 219 102 219 60 219 57 243 87 184 141 194 173 55 88 37 94 249 138 79 152 93 69 137 35 243 67 74 234 190 185 183 26 158 146 85 121 74 199 208 3 211 146 47 10 105 83 230 98 92 54 121 56 122 3 90 236 69 36 215 130 220 142 27 250 159 238 115 105 182 67 107 137 84 25 19 188 234 248 158 71 173 23 126 167 25 88 147 220 123 106 222 214 119 248 208 150 231 68 254 157 6 232 165 90 128 183 22 106 176 179 48 220 202 46 131 98 133 23 190 255 255 156 85 119 148 165 140 123 232 10 151 109 241 61 198 113 115 92 90 162 15 138 127 88 183 2 186 60 151 247 186 151 147 142 141 39 51 25 34 154 34 56 8 146 243 205 130 230 168 219 136 183 101 7 142 28 136 199 214 31 190 16 53 
81 158 65 247 208 89 152 107 249 207 114 11 67 190 140 41 103 231 176 157 76 55 43 231 62 114 61 219 48 77 17 129 234 81 247 186 42 143 164 162 221 149 45 32 84 56 199 58 31 247 214 234 46 128 81 107 241 141 70 161 89 213 161 194 166 152 252 79 166 160 240 131 54 29 35 9 212 105 66 242 96 151 220 141 150 172 119 136 58 61 168 18 18 73 212 183 224 208 6 134 112 118 136 37 18 42 45 229 147 237 88 242 132 179 255 27 96 118 34 25 50 201 42 68 145 253 122 113 205 255 118 189 244 253 225 133 40 15 234 58 251 66 44 255 244 170 153 84 160 58 108 209 130 22 148 19 19 15 131 96 141 120 29 1 117 125 133 28 11 111 85 7 48 1 133 37 170 30 247 74 214 227 155 88 248 47 106 138 188 108 233 73 
227 133 200 215 3 205 115 140 60 199 146 108 71 150 16 113 51 7 58 9 233 212 96 97 4 73 235 191 180 84 136 23 89 80 238 91 156 97 102 216 167 248 195 110 14 210 222 65 88 151 73 66 108 41 34 111 113 13 173 165 97 53 59 185 5 168 147 160 9 248 247 48 112 58 29 126 12 122 62 227 17 134 164 124 174 197 106 32 210 151 68 178 75 126 234 79 39 252 111 174 116 229 93 228 32 121 225 170 242 31 13 131 36 176 126 210 118 232 113 72 127 52 121 201 177 99 152 87 222 134 6 82 234 225 181 137 91 150 179 204 52 191 206 215 112 77 169 229 180 153 172 178 76 164 250 252 134 146 211 100 151 216 181 2 185 107 138 147 128 61 223 52 124 173 11 235 121 51 80 45 203 251 222 23 159 217 146 164 234 101 8 2 
188 188 3 245 166 12 136 166 73 230 217 196 20 227 47 140 22 126 185 96 248 23 245 23 239 135 186 90 108 193 91 40 252 93 29 163 231 37 73 175 138 161 242 157 132 33 42 25 158 98 120 150 120 109 172 104 115 229 65 222 166 155 134 163 119 162 197 94 70 141 14 208 46 255 109 177 160 22 201 189 119 192 84 239 45 127 214 159 101 23 253 138 49 131 45 167 164 113 132 234 253 17 58 43 17 166 91 48 60 163 236 178 99 191 33 15 63 118 46 35 140 43 44 60 45 216 226 208 73 230 58 198 246 115 112 134 153 203 181 212 237 162 6 208 97 39 94 31 156 139 192 168 53 236 227 97 196 70 177 13 44 234 82 34 221 194 168 118 13 93 74 121 254 79 73 223 244 167 253 145 177 190 184 230 170 155 198 237 224 119 121 12 
225 203 173 190 141 85 52 153 49 252 18 175 202 218 142 191 1 11 207 177 200 135 151 241 34 221 222 130 84 88 13 53 162 185 114 47 141 165 71 62 33 215 236 235 49 249 170 49 4 248 226 76 127 248 188 32 213 27 33 42 241 46 221 147 230 80 193 243 116 135 49 149 221 29 128 15 149 169 63 24 161 33 226 159 26 159 62 238 185 95 151 42 140 244 188 241 68 252 228 55 131 148 203 96 48 75 110 196 115 45 92 147 77 62 50 229 220 112 84 21 78 106 62 217 94 121 74 33 117 174 88 119 66 35 215 114 237 196 181 96 112 17 243 61 79 164 34 170 147 244 63 224 95 251 57 188 117 131 221 105 49 53 224 241 214 55 226 195 122 152 163 234 40 22 39 245 185 199 160 77 188 94 172 154 89 229 213 77 231 178 182 151 
102 150 136 188 76 107 127 197 130 34 175 41 55 85 31 112 156 62 60 88 155 231 113 115 76 70 192 51 120 118 201 93 139 209 25 214 187 152 27 188 57 74 228 239 158 130 95 58 191 26 17 217 1 129 204 77 71 140 254 190 129 72 154 139 25 179 224 211 202 250 15 3 68 242 113 226 117 79 155 179 104 44 13 105 172 216 53 114 227 178 175 100 249 74 110 145 252 78 227 198 72 241 72 140 228 57 237 216 135 8 11 239 51 150 88 95 110 12 208 208 189 128 52 55 201 33 199 69 110 171 138 182 28 81 193 255 137 174 87 17 181 225 255 104 119 214 198 229 97 150 53 157 149 105 211 221 9 27 34 119 69 43 45 96 124 237 223 132 27 181 148 79 150 19 182 14 104 124 114 200 146 166 102 39 142 184 5 151 210 165 14 23 
208 185 246 203 38 213 79 191 138 99 14 33 117 68 173 221 63 31 37 208 68 138 247 210 67 123 232 148 159 245 43 111 46 33 185 83 117 136 18 254 234 158 158 222 225 75 59 33 232 96 112 172 105 230 126 171 97 229 191 1 90 233 238 135 137 40 89 253 175 106 251 153 135 26 119 232 227 50 136 76 145 247 247 249 222 244 37 190 217 227 62 51 76 45 57 212 84 145 209 130 122 76 27 1 101 17 104 73 66 239 20 210 103 11 76 69 126 112 130 87 210 192 9 30 108 65 241 63 209 194 192 75 14 90 202 242 106 51 186 44 34 205 125 136 215 200 76 212 183 78 43 137 14 178 166 248 242 151 182 67 216 245 141 230 79 87 88 56 137 18 99 43 222 96 50 53 40 126 9 223 75 178 104 215 100 142 207 86 164 5 152 125 
249 164 226 199 122 58 254 131 75 225 173 168 192 94 220 231 91 100 70 165 22 174 124 121 187 202 78 95 206 101 219 199 136 61 14 2 245 140 4 64 236 176 103 172 142 67 147 232 166 217 142 59 7 137 51 65 84 255 159 34 100 250 105 107 55 118 236 45 129 239 235 109 32 83 25 173 21 44 21 59 132 162 117 138 171 168 202 254 167 232 159 139 226 8 245 153 253 97 69 126 81 48 235 112 2 131 156 23 174 176 81 50 210 69 187 125 236 5 123 20 237 26 158 79 161 19 231 30 116 44 155 68 219 6 179 220 137 79 114 55 126 66 105 80 135 163 204 242 40 198 6 148 96 35 226 1 181 74 30 168 244 56 235 207 62 30 44 198 235 29 252 105 222 228 185 101 8 5 214 47 203 220 194 43 126 36 170 51 236 71 218 225 
126 69 48 187 98 218 1 77 247 125 54 213 97 238 185 104 242 15 22 61 106 215 230 232 123 144 154 103 214 244 199 212 57 247 143 155 81 16 103 72 140 156 156 108 10 212 84 124 227 105 184 77 192 159 180 59 174 79 33 5 67 232 216 123 95 230 149 175 245 124 119 129 24 146 109 34 103 192 29 201 41 212 149 232 242 74 162 33 24 67 37 90 43 252 84 9 226 105 183 216 228 46 216 123 64 69 28 166 132 56 238 173 140 131 21 253 76 55 30 99 121 66 60 35 62 16 43 160 120 225 247 219 143 79 86 206 20 241 243 151 41 97 68 52 99 216 50 175 15 79 145 135 17 77 41 205 92 83 109 211 179 227 46 193 51 131 15 70 243 129 220 29 225 160 207 69 247 1 115 6 207 131 12 223 207 52 44 43 6 25 125 184 
251 170 122 173 173 136 242 160 10 79 60 106 110 12 46 228 139 32 233 217 163 116 56 114 39 100 29 44 124 25 227 119 195 220 164 239 228 22 15 109 100 202 214 81 85 132 53 223 163 157 57 70 144 112 56 182 211 211 225 79 235 69 70 46 160 233 29 132 254 171 112 226 117 198 178 73 74 103 167 236 131 223 178 20 80 105 73 35 60 170 241 39 110 55 85 14 159 240 18 29 27 129 126 15 71 49 87 144 23 254 252 153 221 174 44 45 23 117 207 209 31 192 247 12 118 203 25 21 60 42 176 86 43 47 228 113 222 59 129 244 57 125 13 150 170 57 194 64 45 145 17 202 208 135 213 70 83 109 217 14 23 138 226 65 56 198 49 149 2 177 137 185 173 21 79 214 204 145 22 248 161 38 66 114 173 23 55 127 4 17 140 26 
26 237 90 208 180 138 101 53 187 109 237 231 1 61 190 205 77 83 69 237 121 135 222 165 29 22 163 32 165 47 184 62 28 18 14 79 28 241 131 214 94 113 61 221 45 250 170 248 78 111 229 70 245 196 106 145 217 13 49 253 186 232 59 85 122 72 164 149 57 166 234 22 150 166 242 66 33 29 58 237 139 32 51 255 99 28 16 187 40 64 184 97 168 242 181 161 58 216 54 241 127 159 134 148 69 247 214 101 147 16 209 30 174 4 156 17 158 172 203 69 107 131 165 19 117 218 179 46 50 104 158 48 134 163 196 75 27 154 47 173 41 1 75 215 131 230 231 34 146 179 102 253 181 139 143 43 101 194 215 150 169 245 198 48 152 138 122 178 163 40 96 203 40 170 162 171 16 10 204 162 188 177 31 240 60 173 154 160 238 114 182 152 
103 124 199 126 133 192 49 40 231 16 242 143 57 21 58 72 30 133 105 89 181 135 73 113 180 227 17 162 212 70 185 59 65 255 184 197 63 104 108 166 119 95 53 47 242 237 119 16 241 95 231 166 230 48 23 26 146 167 59 102 108 116 32 173 115 88 114 178 191 222 88 182 188 140 100 46 248 90 188 233 185 163 15 31 82 165 56 228 76 241 201 183 101 105 227 216 192 86 10 254 179 224 180 111 235 152 28 227 241 215 204 170 122 90 200 75 254 127 47 201 240 120 129 85 224 100 172 32 57 53 30 235 21 82 217 255 233 244 226 218 75 46 133 196 136 204 16 6 203 189 207 187 180 207 143 20 178 187 51 235 239 81 86 5 34 175 4 11 35 102 228 110 19 232 177 154 53 64 32 255 125 238 58 49 189 200 196 111 131 246 217 242 
198 48 246 231 94 121 113 128 94 213 109 113 189 31 138 113 221 169 239 90 23 41 11 211 113 206 67 115 68 155 101 138 202 218 113 167 211 226 40 49 183 20 33 243 50 43 228 143 83 211 232 106 124 114 61 108 191 254 222 4 154 68 141 227 157 125 139 112 222 50 33 21 69 192 136 246 234 108 133 62 190 236 167 185 95 99 37 30 98 4 160 251 198 172 94 99 169 232 83 135 153 115 156 222 51 163 212 157 142 89 218 76 69 1 133 35 99 169 192 196 44 96 63 241 13 29 212 181 132 39 187 30 25 214 251 202 121 79 103 7 39 192 210 234 64 87 14 163 255 205 230 44 172 165 156 56 193 112 108 69 22 40 98 173 253 220 247 246 170 221 252 80 158 78 59 93 164 199 255 36 20 230 79 191 139 106 247 203 90 99 16 238 
10 241 156 8 77 147 125 247 112 121 198 141 199 1 234 234 199 105 14 90 206 219 26 89 70 144 163 159 242 179 13 124 36 168 131 112 186 127 230 170 247 173 55 62 45 160 168 116 10 181 205 215 145 230 176 86 118 83 116 232 133 128 100 168 168 102 152 98 100 253 12 91 170 194 25 215 225 192 75 106 244 151 66 5 126 113 90 115 67 77 218 72 205 189 239 117 162 7 86 6 5 98 224 174 163 120 5 132 183 206 238 171 102 175 176 99 159 137 213 225 214 48 41 163 236 152 151 15 158 236 20 162 205 115 208 239 234 84 116 161 35 225 77 8 144 124 106 174 132 190 143 90 237 56 124 90 79 19 104 236 127 250 15 203 110 94 187 88 177 174 121 83 143 69 90 158 192 195 76 68 130 90 30 238 145 153 72 223 44 47 76 42 
42 217 116 23 55 47 110 231 220 102 186 234 170 20 136 233 87 83 173 88 173 202 70 189 226 14 29 141 60 104 182 228 192 43 250 246 216 232 93 53 205 23 31 120 170 39 97 1 121 14 88 165 87 157 99 58 42 127 198 102 102 252 201 38 166 68 28 126 171 247 50 120 15 208 111 184 246 208 184 238 93 143 148 180 44 118 237 86 244 51 59 90 47 131 127 212 70 26 210 240 17 4 232 158 211 87 213 73 39 13 183 132 155 202 183 71 64 164 28 52 214 86 13 133 88 139 216 158 36 170 14 52 46 245 82 1 204 39 201 242 52 128 245 206 74 172 21 137 207 175 60 38 132 72 170 220 82 130 249 117 172 7 40 217 124 121 89 72 160 161 185 83 33 47 160 233 90 53 241 42 227 45 206 104 243 120 68 69 121 61 57 164 
194 97 125 62 89 86 5 248 246 190 202 151 236 107 255 70 159 241 238 130 30 188 233 145 52 172 213 45 104 142 208 43 238 205 231 198 162 236 63 24 170 9 46 22 115 46 91 18 31 74 20 187 133 252 76 57 41 161 101 144 47 180 58 156 1 34 98 34 141 32 58 55 41 103 203 155 20 165 45 50 238 64 109 243 187 184 44 227 216 144 116 134 195 173 161 68 78 4 101 218 35 158 144 202 133 91 102 152 1 18 74 110 81 182 97 12 237 140 239 198 155 226 76 95 143 237 162 221 112 7 183 18 37 72 92 41 34 193 64 34 82 137 144 162 63 112 45 172 252 28 114 151 253 61 117 13 169 150 233 152 29 32 42 65 230 133 232 9 70 40 42 151 177 57 184 111 169 228 27 37 128 12 187 252 200 176 9 113 70 113 137 98 
145 178 34 246 55 10 254 251 50 168 18 98 96 201 208 9 45 107 172 172 118 231 41 189 151 49 174 220 34 55 190 50 232 95 40 31 105 166 153 26 78 170 123 45 242 75 181 31 53 97 75 43 72 115 231 222 35 149 59 195 203 120 244 51 214 29 208 63 66 105 215 15 19 82 59 5 29 239 163 81 81 109 250 24 95 226 246 129 246 176 196 66 40 184 116 125 84 69 60 149 173 19 163 64 101 94 195 1 77 102 208 29 82 203 53 176 45 170 177 35 90 117 227 1 45 88 125 1 28 184 149 72 203 184 135 175 22 202 47 98 175 254 254 2 73 51 177 117 220 225 24 54 86 250 181 3 209 50 3 236 234 23 180 53 206 186 99 99 132 145 69 52 143 67 53 216 244 101 204 208 71 227 133 28 94 58 157 174 107 159 155 212 
54 206 136 131 136 234 230 13 123 170 64 11 236 243 98 224 88 173 48 30 145 180 58 110 109 214 28 87 245 54 171 170 4 51 45 12 30 146 24 152 60 214 34 167 73 131 7 160 49 54 62 65 105 246 46 85 204 73 172 65 254 87 106 129 137 151 140 166 168 163 190 100 248 223 11 65 226 145 97 146 198 158 82 175 148 127 4 223 71 47 160 69 133 10 198 142 32 82 179 72 117 113 171 236 81 53 46 51 197 14 68 12 171 149 58 190 20 61 157 217 235 61 31 112 198 100 125 229 181 49 45 169 161 87 150 113 140 67 35 208 80 102 91 122 250 148 56 141 81 212 103 60 145 5 43 87 104 168 187 156 88 232 70 248 190 91 106 74 157 12 27 108 114 244 229 235 137 29 121 217 112 95 148 1 99 190 214 202 229 18 102 61 
